<?xml version="1.0" encoding="UTF-8"?>
<svg xmlns="http://www.w3.org/2000/svg" xmlns:xlink="http://www.w3.org/1999/xlink" width="453.75pt" height="226.499993pt" viewBox="0 0 453.75 226.499993" version="1.2">
<defs>
<clipPath id="clip1">
  <path d="M 0.375 0 L 453.125 0 L 453.125 226 L 0.375 226 Z M 0.375 0 "/>
</clipPath>
<clipPath id="clip2">
  <path d="M 190 67.917969 L 268 67.917969 L 268 145 L 190 145 Z M 190 67.917969 "/>
</clipPath>
<clipPath id="clip3">
  <path d="M 177 73 L 220 73 L 220 158.519531 L 177 158.519531 Z M 177 73 "/>
</clipPath>
<clipPath id="clip4">
  <path d="M 148.503906 158 L 301 158 L 301 158.519531 L 148.503906 158.519531 Z M 148.503906 158 "/>
</clipPath>
<clipPath id="clip5">
  <path d="M 274 113 L 290 113 L 290 158.519531 L 274 158.519531 Z M 274 113 "/>
</clipPath>
<clipPath id="clip6">
  <path d="M 289 113 L 304.945312 113 L 304.945312 158.519531 L 289 158.519531 Z M 289 113 "/>
</clipPath>
<clipPath id="clip7">
  <path d="M 283 110 L 295 110 L 295 158.519531 L 283 158.519531 Z M 283 110 "/>
</clipPath>
<clipPath id="clip8">
  <path d="M 280 88 L 287 88 L 287 95 L 280 95 Z M 280 88 "/>
</clipPath>
<clipPath id="clip9">
  <path d="M 283.257812 85.617188 L 289.082031 91.441406 L 283.257812 97.265625 L 277.433594 91.441406 Z M 283.257812 85.617188 "/>
</clipPath>
<clipPath id="clip10">
  <path d="M 283.257812 85.617188 L 289.082031 91.441406 L 283.257812 97.265625 L 277.433594 91.441406 Z M 283.257812 85.617188 "/>
</clipPath>
<clipPath id="clip11">
  <path d="M 286.164062 93.75 L 283.855469 91.441406 L 286.175781 89.125 C 286.335938 88.960938 286.335938 88.695312 286.175781 88.535156 C 286.011719 88.375 285.746094 88.375 285.585938 88.535156 L 283.277344 90.84375 L 280.949219 88.515625 C 280.789062 88.355469 280.519531 88.355469 280.359375 88.515625 C 280.199219 88.675781 280.199219 88.945312 280.359375 89.105469 L 282.667969 91.414062 L 280.359375 93.722656 C 280.199219 93.882812 280.199219 94.148438 280.359375 94.3125 C 280.519531 94.472656 280.789062 94.472656 280.949219 94.3125 L 283.238281 92.023438 L 285.546875 94.332031 C 285.707031 94.492188 285.972656 94.492188 286.136719 94.332031 C 286.335938 94.1875 286.324219 93.914062 286.164062 93.75 Z M 286.164062 93.75 "/>
</clipPath>
<clipPath id="clip12">
  <path d="M 157.949219 105.15625 L 173.675781 105.15625 L 173.675781 120.878906 L 157.949219 120.878906 Z M 157.949219 105.15625 "/>
</clipPath>
<clipPath id="clip13">
  <path d="M 172.855469 112.210938 L 166.621094 112.210938 L 166.621094 105.949219 C 166.621094 105.515625 166.261719 105.15625 165.824219 105.15625 C 165.390625 105.15625 165.03125 105.515625 165.03125 105.949219 L 165.03125 112.183594 L 158.746094 112.183594 C 158.308594 112.183594 157.949219 112.542969 157.949219 112.980469 C 157.949219 113.414062 158.308594 113.773438 158.746094 113.773438 L 164.980469 113.773438 L 164.980469 120.007812 C 164.980469 120.445312 165.339844 120.800781 165.773438 120.800781 C 166.210938 120.800781 166.570312 120.445312 166.570312 120.007812 L 166.570312 113.824219 L 172.800781 113.824219 C 173.238281 113.824219 173.597656 113.464844 173.597656 113.03125 C 173.675781 112.570312 173.289062 112.210938 172.855469 112.210938 Z M 172.855469 112.210938 "/>
</clipPath>
<clipPath id="clip14">
  <path d="M 254.339844 145.59375 L 258.832031 145.59375 L 258.832031 150.085938 L 254.339844 150.085938 Z M 254.339844 145.59375 "/>
</clipPath>
<clipPath id="clip15">
  <path d="M 258.832031 147.839844 C 258.832031 148.140625 258.777344 148.425781 258.664062 148.699219 C 258.546875 148.976562 258.386719 149.21875 258.175781 149.429688 C 257.964844 149.640625 257.722656 149.800781 257.445312 149.917969 C 257.171875 150.03125 256.886719 150.085938 256.585938 150.085938 C 256.289062 150.085938 256.003906 150.03125 255.726562 149.917969 C 255.453125 149.800781 255.210938 149.640625 255 149.429688 C 254.789062 149.21875 254.625 148.976562 254.511719 148.699219 C 254.398438 148.425781 254.339844 148.140625 254.339844 147.839844 C 254.339844 147.542969 254.398438 147.257812 254.511719 146.980469 C 254.625 146.707031 254.789062 146.464844 255 146.253906 C 255.210938 146.042969 255.453125 145.878906 255.726562 145.765625 C 256.003906 145.652344 256.289062 145.59375 256.585938 145.59375 C 256.886719 145.59375 257.171875 145.652344 257.445312 145.765625 C 257.722656 145.878906 257.964844 146.042969 258.175781 146.253906 C 258.386719 146.464844 258.546875 146.707031 258.664062 146.980469 C 258.777344 147.257812 258.832031 147.542969 258.832031 147.839844 Z M 258.832031 147.839844 "/>
</clipPath>
<clipPath id="clip16">
  <path d="M 214.644531 62.203125 L 222.132812 62.203125 L 222.132812 69.691406 L 214.644531 69.691406 Z M 214.644531 62.203125 "/>
</clipPath>
<clipPath id="clip17">
  <path d="M 222.132812 65.945312 C 222.132812 66.445312 222.039062 66.921875 221.847656 67.378906 C 221.660156 67.839844 221.386719 68.242188 221.035156 68.59375 C 220.6875 68.945312 220.28125 69.214844 219.824219 69.40625 C 219.363281 69.597656 218.886719 69.691406 218.390625 69.691406 C 217.894531 69.691406 217.414062 69.597656 216.957031 69.40625 C 216.5 69.214844 216.09375 68.945312 215.742188 68.59375 C 215.390625 68.242188 215.121094 67.839844 214.929688 67.378906 C 214.742188 66.921875 214.644531 66.445312 214.644531 65.945312 C 214.644531 65.449219 214.742188 64.972656 214.929688 64.515625 C 215.121094 64.054688 215.390625 63.652344 215.742188 63.300781 C 216.09375 62.949219 216.5 62.679688 216.957031 62.488281 C 217.414062 62.296875 217.894531 62.203125 218.390625 62.203125 C 218.886719 62.203125 219.363281 62.296875 219.824219 62.488281 C 220.28125 62.679688 220.6875 62.949219 221.035156 63.300781 C 221.386719 63.652344 221.660156 64.054688 221.847656 64.515625 C 222.039062 64.972656 222.132812 65.449219 222.132812 65.945312 Z M 222.132812 65.945312 "/>
</clipPath>
</defs>
<g id="surface1">
<g clip-path="url(#clip1)" clip-rule="nonzero">
<path style=" stroke:none;fill-rule:nonzero;fill:rgb(100%,100%,100%);fill-opacity:1;" d="M 0.375 0 L 453.375 0 L 453.375 232.863281 L 0.375 232.863281 Z M 0.375 0 "/>
<path style=" stroke:none;fill-rule:nonzero;fill:rgb(100%,100%,100%);fill-opacity:1;" d="M 0.375 0 L 453.375 0 L 453.375 226.125 L 0.375 226.125 Z M 0.375 0 "/>
<path style=" stroke:none;fill-rule:nonzero;fill:rgb(100%,100%,100%);fill-opacity:1;" d="M 0.375 0 L 453.375 0 L 453.375 226.125 L 0.375 226.125 Z M 0.375 0 "/>
</g>
<g clip-path="url(#clip2)" clip-rule="nonzero">
<path style=" stroke:none;fill-rule:nonzero;fill:rgb(24.708557%,23.919678%,33.729553%);fill-opacity:1;" d="M 228.882812 144.902344 C 228.480469 144.902344 228.070312 144.898438 227.667969 144.882812 L 227.675781 144.589844 C 228.253906 144.609375 228.84375 144.613281 229.421875 144.605469 L 229.425781 144.898438 C 229.246094 144.902344 229.066406 144.902344 228.882812 144.902344 Z M 231.183594 144.835938 L 231.167969 144.542969 C 231.746094 144.507812 232.332031 144.460938 232.910156 144.402344 L 232.9375 144.691406 C 232.359375 144.753906 231.769531 144.800781 231.183594 144.835938 Z M 225.910156 144.789062 C 225.328125 144.746094 224.738281 144.6875 224.160156 144.613281 L 224.195312 144.324219 C 224.769531 144.394531 225.355469 144.453125 225.933594 144.496094 Z M 234.683594 144.46875 L 234.640625 144.179688 C 235.214844 144.089844 235.792969 143.988281 236.359375 143.878906 L 236.417969 144.164062 C 235.847656 144.277344 235.261719 144.378906 234.683594 144.46875 Z M 222.417969 144.359375 C 221.84375 144.261719 221.261719 144.152344 220.691406 144.027344 L 220.753906 143.742188 C 221.320312 143.863281 221.898438 143.976562 222.46875 144.070312 Z M 238.132812 143.78125 L 238.0625 143.496094 C 238.628906 143.355469 239.195312 143.203125 239.75 143.039062 L 239.832031 143.320312 C 239.273438 143.484375 238.703125 143.640625 238.132812 143.78125 Z M 218.980469 143.613281 C 218.417969 143.460938 217.847656 143.296875 217.292969 143.121094 L 217.378906 142.84375 C 217.933594 143.015625 218.496094 143.179688 219.054688 143.332031 Z M 241.507812 142.777344 L 241.410156 142.503906 C 241.957031 142.3125 242.507812 142.105469 243.046875 141.890625 L 243.15625 142.160156 C 242.613281 142.378906 242.058594 142.585938 241.507812 142.777344 Z M 215.621094 142.550781 C 215.074219 142.347656 214.523438 142.128906 213.980469 141.902344 L 214.09375 141.632812 C 214.632812 141.859375 215.179688 142.074219 215.722656 142.273438 Z M 244.769531 141.472656 L 244.648438 141.203125 C 245.175781 140.964844 245.703125 140.710938 246.21875 140.445312 L 246.351562 140.707031 C 245.832031 140.972656 245.300781 141.230469 244.769531 141.472656 Z M 212.375 141.179688 C 211.847656 140.925781 211.316406 140.660156 210.800781 140.382812 L 210.9375 140.125 C 211.449219 140.398438 211.976562 140.664062 212.5 140.914062 Z M 247.894531 139.871094 L 247.75 139.617188 C 248.253906 139.328125 248.757812 139.023438 249.246094 138.714844 L 249.402344 138.964844 C 248.910156 139.273438 248.402344 139.582031 247.894531 139.871094 Z M 209.265625 139.515625 C 208.765625 139.21875 208.261719 138.902344 207.773438 138.578125 L 207.933594 138.335938 C 208.417969 138.65625 208.917969 138.96875 209.414062 139.265625 Z M 250.867188 137.988281 L 250.699219 137.75 C 251.171875 137.417969 251.648438 137.070312 252.105469 136.714844 L 252.285156 136.945312 C 251.820312 137.304688 251.34375 137.652344 250.867188 137.988281 Z M 206.324219 137.574219 C 205.851562 137.234375 205.382812 136.875 204.925781 136.507812 L 205.105469 136.277344 C 205.5625 136.640625 206.027344 137 206.496094 137.339844 Z M 253.652344 135.84375 L 253.464844 135.617188 C 253.90625 135.246094 254.347656 134.855469 254.773438 134.460938 L 254.972656 134.675781 C 254.542969 135.074219 254.097656 135.464844 253.652344 135.84375 Z M 203.574219 135.375 C 203.136719 134.992188 202.699219 134.589844 202.277344 134.183594 L 202.480469 133.972656 C 202.898438 134.375 203.332031 134.773438 203.765625 135.15625 Z M 256.234375 133.449219 L 256.027344 133.246094 C 256.433594 132.832031 256.839844 132.402344 257.226562 131.972656 L 257.445312 132.167969 C 257.054688 132.601562 256.648438 133.03125 256.234375 133.449219 Z M 201.035156 132.9375 C 200.632812 132.511719 200.234375 132.074219 199.851562 131.632812 L 200.074219 131.441406 C 200.453125 131.878906 200.847656 132.3125 201.246094 132.734375 Z M 258.589844 130.832031 L 258.367188 130.644531 C 258.734375 130.195312 259.097656 129.734375 259.445312 129.269531 L 259.675781 129.445312 C 259.328125 129.914062 258.960938 130.378906 258.589844 130.832031 Z M 198.730469 130.277344 C 198.367188 129.816406 198.011719 129.34375 197.671875 128.871094 L 197.910156 128.699219 C 198.246094 129.171875 198.601562 129.640625 198.960938 130.09375 Z M 260.699219 128.007812 L 260.457031 127.84375 C 260.785156 127.363281 261.101562 126.867188 261.40625 126.371094 L 261.65625 126.527344 C 261.351562 127.023438 261.027344 127.523438 260.699219 128.007812 Z M 196.675781 127.417969 C 196.359375 126.929688 196.046875 126.425781 195.75 125.921875 L 196.003906 125.773438 C 196.296875 126.273438 196.605469 126.773438 196.921875 127.257812 Z M 262.542969 125 L 262.289062 124.859375 C 262.566406 124.351562 262.839844 123.828125 263.097656 123.308594 L 263.359375 123.4375 C 263.101562 123.960938 262.824219 124.488281 262.542969 125 Z M 194.894531 124.386719 C 194.621094 123.871094 194.355469 123.339844 194.109375 122.8125 L 194.371094 122.6875 C 194.621094 123.210938 194.882812 123.738281 195.152344 124.25 Z M 264.105469 121.835938 L 263.835938 121.71875 C 264.070312 121.1875 264.292969 120.640625 264.5 120.097656 L 264.773438 120.203125 C 264.5625 120.75 264.339844 121.300781 264.105469 121.835938 Z M 193.394531 121.207031 C 193.171875 120.667969 192.957031 120.117188 192.757812 119.566406 L 193.035156 119.46875 C 193.230469 120.011719 193.445312 120.558594 193.664062 121.09375 Z M 265.367188 118.539062 L 265.089844 118.449219 C 265.273438 117.898438 265.445312 117.335938 265.601562 116.773438 L 265.882812 116.855469 C 265.722656 117.417969 265.550781 117.984375 265.367188 118.539062 Z M 192.195312 117.898438 C 192.023438 117.339844 191.859375 116.769531 191.710938 116.203125 L 191.992188 116.128906 C 192.140625 116.691406 192.300781 117.257812 192.476562 117.8125 Z M 266.320312 115.148438 L 266.035156 115.082031 C 266.167969 114.515625 266.285156 113.941406 266.390625 113.367188 L 266.679688 113.421875 C 266.574219 113.996094 266.453125 114.578125 266.320312 115.148438 Z M 191.304688 114.488281 C 191.179688 113.917969 191.070312 113.335938 190.976562 112.757812 L 191.261719 112.710938 C 191.359375 113.28125 191.46875 113.859375 191.589844 114.429688 Z M 266.957031 111.683594 L 266.667969 111.640625 C 266.746094 111.070312 266.8125 110.484375 266.863281 109.90625 L 267.15625 109.929688 C 267.101562 110.515625 267.035156 111.105469 266.957031 111.683594 Z M 190.726562 111.011719 C 190.660156 110.433594 190.601562 109.84375 190.558594 109.257812 L 190.851562 109.238281 C 190.894531 109.816406 190.949219 110.402344 191.015625 110.980469 Z M 267.273438 108.171875 L 266.984375 108.160156 C 267.007812 107.578125 267.023438 106.992188 267.023438 106.410156 L 267.3125 106.410156 C 267.3125 106.996094 267.300781 107.589844 267.273438 108.171875 Z M 190.46875 107.5 C 190.460938 107.140625 190.457031 106.773438 190.457031 106.410156 C 190.457031 106.1875 190.457031 105.960938 190.460938 105.738281 L 190.753906 105.742188 C 190.75 105.964844 190.746094 106.1875 190.746094 106.410156 C 190.746094 106.769531 190.753906 107.136719 190.761719 107.492188 Z M 267.019531 106.003906 C 267.011719 105.421875 266.996094 104.835938 266.960938 104.253906 L 267.253906 104.238281 C 267.285156 104.824219 267.304688 105.414062 267.3125 106 Z M 190.824219 103.996094 L 190.53125 103.976562 C 190.566406 103.390625 190.617188 102.800781 190.679688 102.21875 L 190.972656 102.25 C 190.910156 102.828125 190.859375 103.414062 190.824219 103.996094 Z M 266.824219 102.511719 C 266.765625 101.933594 266.695312 101.351562 266.609375 100.777344 L 266.898438 100.734375 C 266.984375 101.3125 267.058594 101.898438 267.117188 102.480469 Z M 191.199219 100.519531 L 190.910156 100.472656 C 191 99.894531 191.101562 99.308594 191.21875 98.738281 L 191.503906 98.796875 C 191.390625 99.363281 191.289062 99.941406 191.199219 100.519531 Z M 266.316406 99.050781 C 266.203125 98.480469 266.078125 97.90625 265.941406 97.34375 L 266.226562 97.273438 C 266.363281 97.839844 266.488281 98.421875 266.601562 98.996094 Z M 191.890625 97.089844 L 191.605469 97.019531 C 191.75 96.453125 191.90625 95.878906 192.074219 95.320312 L 192.355469 95.40625 C 192.1875 95.960938 192.03125 96.527344 191.890625 97.089844 Z M 265.488281 95.652344 C 265.324219 95.097656 265.148438 94.535156 264.960938 93.988281 L 265.234375 93.890625 C 265.425781 94.445312 265.605469 95.011719 265.769531 95.570312 Z M 192.898438 93.738281 L 192.621094 93.640625 C 192.816406 93.085938 193.023438 92.53125 193.246094 91.988281 L 193.515625 92.097656 C 193.296875 92.636719 193.089844 93.1875 192.898438 93.738281 Z M 264.355469 92.347656 C 264.140625 91.808594 263.914062 91.269531 263.675781 90.742188 L 263.941406 90.621094 C 264.179688 91.152344 264.410156 91.695312 264.625 92.238281 Z M 194.207031 90.488281 L 193.941406 90.367188 C 194.1875 89.832031 194.445312 89.300781 194.714844 88.777344 L 194.976562 88.914062 C 194.707031 89.429688 194.449219 89.960938 194.207031 90.488281 Z M 262.921875 89.164062 C 262.664062 88.648438 262.386719 88.132812 262.101562 87.625 L 262.355469 87.484375 C 262.640625 87.992188 262.921875 88.511719 263.183594 89.035156 Z M 195.8125 87.375 L 195.558594 87.230469 C 195.851562 86.722656 196.15625 86.214844 196.472656 85.722656 L 196.71875 85.878906 C 196.40625 86.367188 196.101562 86.871094 195.8125 87.375 Z M 261.207031 86.125 C 260.898438 85.632812 260.574219 85.144531 260.246094 84.667969 L 260.484375 84.5 C 260.816406 84.980469 261.144531 85.476562 261.453125 85.972656 Z M 197.695312 84.425781 L 197.453125 84.257812 C 197.792969 83.777344 198.144531 83.300781 198.5 82.839844 L 198.734375 83.019531 C 198.378906 83.476562 198.027344 83.949219 197.695312 84.425781 Z M 259.21875 83.253906 C 258.867188 82.792969 258.5 82.335938 258.128906 81.890625 L 258.351562 81.703125 C 258.726562 82.148438 259.097656 82.613281 259.453125 83.078125 Z M 199.835938 81.660156 L 199.613281 81.472656 C 199.988281 81.027344 200.382812 80.582031 200.785156 80.15625 L 200.996094 80.355469 C 200.601562 80.78125 200.210938 81.21875 199.835938 81.660156 Z M 256.976562 80.578125 C 256.585938 80.148438 256.175781 79.722656 255.765625 79.316406 L 255.972656 79.109375 C 256.386719 79.519531 256.796875 79.945312 257.191406 80.378906 Z M 202.21875 79.101562 L 202.011719 78.894531 C 202.429688 78.484375 202.863281 78.078125 203.296875 77.691406 L 203.492188 77.910156 C 203.0625 78.296875 202.632812 78.695312 202.21875 79.101562 Z M 254.5 78.109375 C 254.070312 77.71875 253.625 77.335938 253.179688 76.964844 L 253.367188 76.738281 C 253.816406 77.113281 254.265625 77.5 254.699219 77.894531 Z M 204.820312 76.773438 L 204.636719 76.546875 C 205.089844 76.179688 205.554688 75.816406 206.023438 75.46875 L 206.199219 75.703125 C 205.734375 76.046875 205.269531 76.410156 204.820312 76.773438 Z M 251.808594 75.882812 C 251.34375 75.53125 250.867188 75.1875 250.390625 74.859375 L 250.554688 74.617188 C 251.035156 74.949219 251.519531 75.292969 251.984375 75.648438 Z M 207.625 74.695312 L 207.460938 74.449219 C 207.945312 74.125 208.441406 73.804688 208.941406 73.503906 L 209.09375 73.753906 C 208.597656 74.054688 208.105469 74.371094 207.625 74.695312 Z M 248.925781 73.90625 C 248.429688 73.597656 247.925781 73.300781 247.417969 73.019531 L 247.558594 72.761719 C 248.070312 73.046875 248.582031 73.347656 249.078125 73.65625 Z M 210.601562 72.878906 L 210.460938 72.621094 C 210.972656 72.339844 211.5 72.070312 212.023438 71.8125 L 212.148438 72.074219 C 211.632812 72.332031 211.109375 72.601562 210.601562 72.878906 Z M 245.871094 72.199219 C 245.351562 71.941406 244.820312 71.691406 244.289062 71.457031 L 244.40625 71.1875 C 244.941406 71.425781 245.476562 71.675781 246 71.9375 Z M 213.734375 71.34375 L 213.617188 71.078125 C 214.152344 70.84375 214.699219 70.621094 215.242188 70.414062 L 215.347656 70.6875 C 214.804688 70.894531 214.261719 71.113281 213.734375 71.34375 Z M 242.671875 70.785156 C 242.128906 70.574219 241.578125 70.375 241.027344 70.1875 L 241.117188 69.910156 C 241.675781 70.097656 242.230469 70.300781 242.777344 70.511719 Z M 216.992188 70.105469 L 216.902344 69.828125 C 217.457031 69.644531 218.023438 69.472656 218.585938 69.316406 L 218.664062 69.597656 C 218.105469 69.753906 217.542969 69.925781 216.992188 70.105469 Z M 239.359375 69.671875 C 238.800781 69.511719 238.230469 69.363281 237.667969 69.230469 L 237.734375 68.945312 C 238.304688 69.078125 238.875 69.226562 239.4375 69.390625 Z M 220.355469 69.171875 L 220.292969 68.886719 C 220.859375 68.753906 221.441406 68.636719 222.015625 68.53125 L 222.066406 68.820312 C 221.496094 68.921875 220.921875 69.042969 220.355469 69.171875 Z M 235.960938 68.867188 C 235.390625 68.761719 234.8125 68.664062 234.238281 68.585938 L 234.277344 68.296875 C 234.855469 68.375 235.441406 68.472656 236.015625 68.582031 Z M 223.792969 68.550781 L 223.753906 68.257812 C 224.332031 68.183594 224.921875 68.117188 225.5 68.066406 L 225.527344 68.359375 C 224.949219 68.40625 224.367188 68.472656 223.792969 68.550781 Z M 232.503906 68.382812 C 231.925781 68.328125 231.339844 68.285156 230.761719 68.257812 L 230.777344 67.964844 C 231.359375 67.992188 231.949219 68.035156 232.53125 68.089844 Z M 227.269531 68.246094 L 227.257812 67.953125 C 227.792969 67.929688 228.34375 67.917969 228.882812 67.917969 L 229.015625 67.917969 L 229.015625 68.210938 L 228.882812 68.210938 C 228.347656 68.210938 227.804688 68.222656 227.269531 68.246094 Z M 227.269531 68.246094 "/>
</g>
<path style=" stroke:none;fill-rule:nonzero;fill:rgb(18.429565%,18.03894%,25.489807%);fill-opacity:1;" d="M 266.316406 138.355469 C 266.085938 138.355469 265.863281 138.3125 265.648438 138.222656 C 265.433594 138.132812 265.242188 138.007812 265.078125 137.84375 C 264.914062 137.675781 264.785156 137.488281 264.699219 137.273438 C 264.609375 137.058594 264.5625 136.832031 264.5625 136.601562 C 264.5625 136.367188 264.609375 136.144531 264.699219 135.929688 C 264.785156 135.714844 264.914062 135.523438 265.078125 135.359375 C 265.242188 135.195312 265.433594 135.066406 265.648438 134.976562 C 265.863281 134.890625 266.085938 134.84375 266.316406 134.84375 C 266.550781 134.84375 266.773438 134.890625 266.988281 134.976562 C 267.203125 135.066406 267.394531 135.195312 267.558594 135.359375 C 267.722656 135.523438 267.847656 135.714844 267.9375 135.929688 C 268.027344 136.144531 268.070312 136.367188 268.070312 136.601562 C 268.070312 136.832031 268.027344 137.058594 267.9375 137.273438 C 267.847656 137.488281 267.722656 137.675781 267.558594 137.84375 C 267.390625 138.007812 267.203125 138.132812 266.988281 138.222656 C 266.773438 138.3125 266.550781 138.355469 266.316406 138.355469 Z M 266.316406 135.136719 C 266.125 135.136719 265.9375 135.175781 265.757812 135.25 C 265.578125 135.324219 265.421875 135.429688 265.285156 135.566406 C 265.148438 135.703125 265.042969 135.859375 264.96875 136.039062 C 264.894531 136.21875 264.855469 136.40625 264.855469 136.601562 C 264.855469 136.792969 264.894531 136.980469 264.96875 137.160156 C 265.042969 137.339844 265.148438 137.5 265.285156 137.636719 C 265.421875 137.773438 265.578125 137.878906 265.757812 137.953125 C 265.9375 138.027344 266.125 138.0625 266.316406 138.0625 C 266.511719 138.0625 266.699219 138.027344 266.875 137.953125 C 267.054688 137.878906 267.214844 137.773438 267.351562 137.636719 C 267.488281 137.5 267.59375 137.339844 267.667969 137.160156 C 267.742188 136.980469 267.777344 136.792969 267.777344 136.601562 C 267.777344 136.40625 267.742188 136.21875 267.667969 136.039062 C 267.59375 135.863281 267.488281 135.703125 267.351562 135.566406 C 267.214844 135.429688 267.054688 135.324219 266.875 135.25 C 266.699219 135.175781 266.511719 135.136719 266.316406 135.136719 Z M 266.316406 135.136719 "/>
<g clip-path="url(#clip3)" clip-rule="nonzero">
<path style=" stroke:none;fill-rule:nonzero;fill:rgb(24.708557%,23.919678%,33.729553%);fill-opacity:1;" d="M 219.675781 93.296875 L 219.675781 102.910156 C 219.675781 103.003906 219.644531 103.082031 219.578125 103.148438 C 219.511719 103.214844 219.433594 103.246094 219.34375 103.246094 L 219.105469 103.246094 L 219.105469 153.324219 C 219.105469 153.667969 219.070312 154.007812 219.003906 154.34375 C 218.9375 154.679688 218.835938 155.003906 218.707031 155.324219 C 218.574219 155.640625 218.414062 155.941406 218.222656 156.226562 C 218.035156 156.511719 217.816406 156.773438 217.574219 157.019531 C 217.332031 157.261719 217.070312 157.476562 216.785156 157.667969 C 216.5 157.859375 216.199219 158.019531 215.882812 158.148438 C 215.566406 158.28125 215.242188 158.378906 214.90625 158.449219 C 214.570312 158.515625 214.230469 158.546875 213.886719 158.546875 L 182.648438 158.546875 C 182.304688 158.546875 181.96875 158.515625 181.632812 158.449219 C 181.296875 158.378906 180.96875 158.28125 180.652344 158.152344 C 180.335938 158.019531 180.035156 157.859375 179.75 157.667969 C 179.464844 157.476562 179.203125 157.261719 178.960938 157.019531 C 178.71875 156.773438 178.503906 156.511719 178.3125 156.226562 C 178.121094 155.941406 177.960938 155.640625 177.832031 155.324219 C 177.699219 155.003906 177.601562 154.679688 177.535156 154.34375 C 177.46875 154.007812 177.433594 153.667969 177.433594 153.324219 L 177.433594 105.003906 L 177.261719 105.003906 C 177.105469 105.003906 177.023438 104.925781 177.023438 104.765625 L 177.023438 99.296875 C 177.023438 99.136719 177.101562 99.058594 177.261719 99.058594 L 177.433594 99.058594 L 177.433594 97 L 177.257812 97 C 177.191406 97 177.132812 96.972656 177.085938 96.925781 C 177.035156 96.875 177.011719 96.820312 177.011719 96.75 L 177.011719 91.355469 C 177.011719 91.1875 177.09375 91.105469 177.257812 91.105469 L 177.433594 91.105469 L 177.433594 88.292969 L 177.257812 88.292969 C 177.109375 88.292969 177.039062 88.21875 177.039062 88.074219 L 177.039062 85.128906 C 177.039062 84.984375 177.109375 84.910156 177.257812 84.90625 L 177.433594 84.90625 L 177.433594 78.945312 C 177.433594 78.601562 177.46875 78.261719 177.535156 77.925781 C 177.601562 77.589844 177.699219 77.261719 177.832031 76.945312 C 177.960938 76.628906 178.121094 76.328125 178.3125 76.042969 C 178.503906 75.757812 178.71875 75.496094 178.960938 75.25 C 179.203125 75.007812 179.464844 74.792969 179.75 74.601562 C 180.035156 74.410156 180.335938 74.25 180.652344 74.121094 C 180.96875 73.988281 181.296875 73.890625 181.632812 73.824219 C 181.96875 73.753906 182.304688 73.722656 182.648438 73.722656 L 213.886719 73.722656 C 214.230469 73.722656 214.570312 73.753906 214.90625 73.824219 C 215.242188 73.890625 215.566406 73.988281 215.882812 74.121094 C 216.199219 74.25 216.5 74.410156 216.785156 74.601562 C 217.070312 74.792969 217.332031 75.007812 217.574219 75.25 C 217.816406 75.496094 218.035156 75.757812 218.222656 76.042969 C 218.414062 76.328125 218.574219 76.628906 218.707031 76.945312 C 218.835938 77.261719 218.9375 77.589844 219.003906 77.925781 C 219.070312 78.261719 219.105469 78.601562 219.105469 78.945312 L 219.105469 92.964844 L 219.34375 92.964844 C 219.433594 92.964844 219.511719 92.996094 219.578125 93.0625 C 219.644531 93.128906 219.675781 93.207031 219.675781 93.296875 Z M 219.675781 93.296875 "/>
</g>
<path style=" stroke:none;fill-rule:nonzero;fill:rgb(90.19928%,90.979004%,92.549133%);fill-opacity:1;" d="M 194.695312 76.402344 L 199.773438 76.402344 C 199.875 76.402344 199.964844 76.4375 200.035156 76.511719 C 200.109375 76.582031 200.144531 76.671875 200.144531 76.773438 L 200.144531 77.210938 C 200.144531 77.316406 200.109375 77.402344 200.035156 77.476562 C 199.964844 77.546875 199.875 77.585938 199.773438 77.585938 L 194.695312 77.585938 C 194.59375 77.585938 194.507812 77.546875 194.433594 77.476562 C 194.363281 77.402344 194.324219 77.316406 194.324219 77.210938 L 194.324219 76.773438 C 194.324219 76.671875 194.363281 76.582031 194.433594 76.511719 C 194.507812 76.4375 194.59375 76.402344 194.695312 76.402344 Z M 194.695312 76.402344 "/>
<path style=" stroke:none;fill-rule:nonzero;fill:rgb(90.19928%,90.979004%,92.549133%);fill-opacity:1;" d="M 202.363281 76.992188 C 202.363281 77.179688 202.300781 77.335938 202.167969 77.46875 C 202.039062 77.597656 201.878906 77.664062 201.695312 77.664062 C 201.507812 77.664062 201.351562 77.597656 201.21875 77.46875 C 201.089844 77.335938 201.023438 77.179688 201.023438 76.992188 C 201.023438 76.808594 201.089844 76.648438 201.21875 76.519531 C 201.351562 76.386719 201.507812 76.320312 201.695312 76.320312 C 201.878906 76.320312 202.039062 76.386719 202.167969 76.519531 C 202.300781 76.648438 202.363281 76.808594 202.363281 76.992188 Z M 202.363281 76.992188 "/>
<path style=" stroke:none;fill-rule:nonzero;fill:rgb(100%,87.059021%,9.01947%);fill-opacity:1;" d="M 216.605469 79.980469 L 216.605469 153.757812 C 216.605469 154.195312 216.523438 154.617188 216.355469 155.023438 C 216.1875 155.429688 215.945312 155.789062 215.636719 156.097656 C 215.324219 156.410156 214.96875 156.648438 214.5625 156.816406 C 214.15625 156.984375 213.734375 157.070312 213.296875 157.070312 L 183.394531 157.070312 C 182.953125 157.070312 182.53125 156.988281 182.125 156.820312 C 181.71875 156.652344 181.363281 156.410156 181.050781 156.101562 C 180.742188 155.789062 180.503906 155.429688 180.335938 155.023438 C 180.167969 154.617188 180.082031 154.195312 180.082031 153.757812 L 180.082031 79.980469 C 180.082031 79.539062 180.167969 79.117188 180.335938 78.710938 C 180.503906 78.304688 180.742188 77.945312 181.054688 77.632812 C 181.363281 77.324219 181.722656 77.085938 182.125 76.917969 C 182.53125 76.746094 182.953125 76.664062 183.394531 76.664062 L 187.867188 76.664062 L 187.867188 77.238281 C 187.867188 77.601562 187.9375 77.949219 188.078125 78.285156 C 188.214844 78.617188 188.410156 78.914062 188.667969 79.167969 C 188.921875 79.425781 189.21875 79.621094 189.550781 79.761719 C 189.886719 79.898438 190.234375 79.96875 190.59375 79.96875 L 205.800781 79.96875 C 206.164062 79.96875 206.511719 79.898438 206.84375 79.761719 C 207.179688 79.621094 207.472656 79.425781 207.730469 79.167969 C 207.984375 78.914062 208.179688 78.617188 208.320312 78.285156 C 208.457031 77.949219 208.527344 77.601562 208.527344 77.238281 L 208.527344 76.664062 L 213.296875 76.664062 C 213.734375 76.664062 214.15625 76.746094 214.5625 76.914062 C 214.96875 77.085938 215.328125 77.324219 215.636719 77.632812 C 215.949219 77.945312 216.1875 78.304688 216.355469 78.710938 C 216.523438 79.117188 216.605469 79.539062 216.605469 79.980469 Z M 216.605469 79.980469 "/>
<path style=" stroke:none;fill-rule:nonzero;fill:rgb(0%,0%,0%);fill-opacity:0.2;" d="M 181.542969 100.847656 L 215.441406 100.847656 L 215.441406 117.386719 L 181.542969 117.386719 Z M 181.542969 100.847656 "/>
<path style=" stroke:none;fill-rule:nonzero;fill:rgb(94.898987%,94.898987%,94.898987%);fill-opacity:1;" d="M 234.730469 81.96875 L 268.628906 81.96875 L 268.628906 98.507812 L 234.730469 98.507812 Z M 234.730469 81.96875 "/>
<path style=" stroke:none;fill-rule:nonzero;fill:rgb(24.708557%,23.919678%,33.729553%);fill-opacity:1;" d="M 181.542969 125.917969 L 215.441406 125.917969 L 215.441406 142.457031 L 181.542969 142.457031 Z M 181.542969 125.917969 "/>
<path style=" stroke:none;fill-rule:nonzero;fill:rgb(100%,100%,100%);fill-opacity:1;" d="M 214.859375 85.667969 C 214.859375 86.058594 214.785156 86.429688 214.636719 86.789062 C 214.488281 87.148438 214.277344 87.464844 214.003906 87.738281 C 213.730469 88.011719 213.414062 88.226562 213.054688 88.375 C 212.695312 88.523438 212.324219 88.597656 211.9375 88.597656 C 211.546875 88.597656 211.175781 88.523438 210.816406 88.375 C 210.460938 88.226562 210.144531 88.011719 209.871094 87.738281 C 209.59375 87.464844 209.382812 87.148438 209.234375 86.789062 C 209.089844 86.429688 209.015625 86.058594 209.015625 85.667969 C 209.015625 85.28125 209.089844 84.90625 209.234375 84.550781 C 209.382812 84.191406 209.59375 83.875 209.871094 83.597656 C 210.144531 83.324219 210.460938 83.113281 210.816406 82.964844 C 211.175781 82.816406 211.546875 82.742188 211.9375 82.742188 C 212.324219 82.742188 212.695312 82.816406 213.054688 82.964844 C 213.414062 83.113281 213.730469 83.324219 214.003906 83.597656 C 214.277344 83.875 214.488281 84.191406 214.636719 84.550781 C 214.785156 84.90625 214.859375 85.28125 214.859375 85.667969 Z M 214.859375 85.667969 "/>
<path style=" stroke:none;fill-rule:nonzero;fill:rgb(24.708557%,23.919678%,33.729553%);fill-opacity:1;" d="M 213.25 85.574219 L 212.03125 85.574219 L 212.03125 84.351562 L 211.84375 84.351562 L 211.84375 85.574219 L 210.621094 85.574219 L 210.621094 85.761719 L 211.84375 85.761719 L 211.84375 86.988281 L 212.03125 86.988281 L 212.03125 85.761719 L 213.25 85.761719 Z M 213.25 85.574219 "/>
<path style=" stroke:none;fill-rule:nonzero;fill:rgb(24.708557%,23.919678%,33.729553%);fill-opacity:1;" d="M 230.929688 79.773438 L 264.832031 79.773438 L 264.832031 96.3125 L 230.929688 96.3125 Z M 230.929688 79.773438 "/>
<path style=" stroke:none;fill-rule:nonzero;fill:rgb(100%,100%,100%);fill-opacity:1;" d="M 246.066406 90.878906 C 246.953125 94.164062 249.992188 96.199219 249.992188 96.199219 C 249.992188 96.199219 251.59375 92.90625 250.703125 89.621094 C 249.816406 86.335938 246.777344 84.300781 246.777344 84.300781 C 246.777344 84.300781 245.175781 87.59375 246.066406 90.878906 Z M 246.066406 90.878906 "/>
<path style=" stroke:none;fill-rule:nonzero;fill:rgb(100%,87.059021%,9.01947%);fill-opacity:1;" d="M 247.367188 90.171875 C 249.804688 92.546875 250.101562 96.195312 250.101562 96.195312 C 250.101562 96.195312 246.449219 95.996094 244.015625 93.621094 C 241.582031 91.246094 241.28125 87.597656 241.28125 87.597656 C 241.28125 87.597656 244.933594 87.796875 247.367188 90.171875 Z M 247.367188 90.171875 "/>
<path style=" stroke:none;fill-rule:nonzero;fill:rgb(100%,100%,100%);fill-opacity:1;" d="M 195.191406 137.273438 C 196.078125 140.558594 199.117188 142.59375 199.117188 142.59375 C 199.117188 142.59375 200.71875 139.300781 199.832031 136.015625 C 198.945312 132.730469 195.90625 130.695312 195.90625 130.695312 C 195.90625 130.695312 194.304688 133.988281 195.191406 137.273438 Z M 195.191406 137.273438 "/>
<path style=" stroke:none;fill-rule:nonzero;fill:rgb(100%,87.059021%,9.01947%);fill-opacity:1;" d="M 196.496094 136.566406 C 198.929688 138.941406 199.226562 142.589844 199.226562 142.589844 C 199.226562 142.589844 195.578125 142.390625 193.144531 140.019531 C 190.707031 137.644531 190.410156 133.992188 190.410156 133.992188 C 190.410156 133.992188 194.0625 134.191406 196.496094 136.566406 Z M 196.496094 136.566406 "/>
<path style=" stroke:none;fill-rule:nonzero;fill:rgb(100%,100%,100%);fill-opacity:1;" d="M 203.265625 137.273438 C 202.378906 140.558594 199.339844 142.59375 199.339844 142.59375 C 199.339844 142.59375 197.738281 139.300781 198.625 136.015625 C 199.511719 132.730469 202.550781 130.695312 202.550781 130.695312 C 202.550781 130.695312 204.152344 133.988281 203.265625 137.273438 Z M 203.265625 137.273438 "/>
<path style=" stroke:none;fill-rule:nonzero;fill:rgb(100%,87.059021%,9.01947%);fill-opacity:1;" d="M 201.960938 136.566406 C 199.527344 138.941406 199.226562 142.589844 199.226562 142.589844 C 199.226562 142.589844 202.878906 142.390625 205.3125 140.019531 C 207.75 137.644531 208.046875 133.992188 208.046875 133.992188 C 208.046875 133.992188 204.394531 134.191406 201.960938 136.566406 Z M 201.960938 136.566406 "/>
<path style=" stroke:none;fill-rule:nonzero;fill:rgb(24.708557%,23.919678%,33.729553%);fill-opacity:1;" d="M 238.53125 117.175781 L 235.644531 117.175781 L 235.644531 114.289062 L 238.53125 114.289062 Z M 235.867188 116.957031 L 238.308594 116.957031 L 238.308594 114.511719 L 235.867188 114.511719 Z M 235.867188 116.957031 "/>
<path style=" stroke:none;fill-rule:nonzero;fill:rgb(18.429565%,18.03894%,25.489807%);fill-opacity:1;" d="M 162.789062 135.042969 L 160.820312 132.933594 L 162.929688 130.960938 L 164.898438 133.074219 Z M 161.132812 132.941406 L 162.800781 134.730469 L 164.582031 133.0625 L 162.917969 131.273438 Z M 161.132812 132.941406 "/>
<path style=" stroke:none;fill-rule:nonzero;fill:rgb(24.708557%,23.919678%,33.729553%);fill-opacity:1;" d="M 165.820312 88.109375 C 165.820312 88.304688 165.78125 88.492188 165.707031 88.675781 C 165.632812 88.855469 165.527344 89.015625 165.386719 89.152344 C 165.25 89.292969 165.089844 89.398438 164.910156 89.472656 C 164.730469 89.546875 164.542969 89.585938 164.347656 89.585938 C 164.152344 89.585938 163.964844 89.546875 163.78125 89.472656 C 163.601562 89.398438 163.441406 89.292969 163.304688 89.152344 C 163.167969 89.015625 163.0625 88.855469 162.984375 88.675781 C 162.910156 88.492188 162.875 88.304688 162.875 88.109375 C 162.875 87.914062 162.910156 87.726562 162.984375 87.546875 C 163.0625 87.363281 163.167969 87.207031 163.304688 87.066406 C 163.441406 86.929688 163.601562 86.820312 163.78125 86.746094 C 163.964844 86.671875 164.152344 86.636719 164.347656 86.636719 C 164.542969 86.636719 164.730469 86.671875 164.910156 86.746094 C 165.089844 86.820312 165.25 86.929688 165.386719 87.066406 C 165.527344 87.207031 165.632812 87.363281 165.707031 87.546875 C 165.78125 87.726562 165.820312 87.914062 165.820312 88.109375 Z M 165.820312 88.109375 "/>
<path style=" stroke:none;fill-rule:nonzero;fill:rgb(18.429565%,18.03894%,25.489807%);fill-opacity:1;" d="M 164.347656 92.371094 C 164.066406 92.371094 163.789062 92.34375 163.515625 92.289062 C 163.242188 92.234375 162.976562 92.152344 162.71875 92.046875 C 162.460938 91.941406 162.214844 91.808594 161.984375 91.652344 C 161.75 91.496094 161.535156 91.320312 161.339844 91.125 C 161.140625 90.925781 160.964844 90.710938 160.808594 90.476562 C 160.652344 90.246094 160.523438 90 160.414062 89.742188 C 160.308594 89.480469 160.226562 89.214844 160.171875 88.941406 C 160.121094 88.667969 160.09375 88.390625 160.09375 88.109375 C 160.09375 87.832031 160.121094 87.554688 160.171875 87.277344 C 160.226562 87.003906 160.308594 86.738281 160.414062 86.480469 C 160.523438 86.222656 160.652344 85.976562 160.808594 85.742188 C 160.964844 85.511719 161.140625 85.292969 161.339844 85.097656 C 161.535156 84.898438 161.75 84.722656 161.984375 84.566406 C 162.214844 84.410156 162.460938 84.28125 162.71875 84.171875 C 162.976562 84.066406 163.242188 83.984375 163.515625 83.929688 C 163.789062 83.875 164.066406 83.847656 164.347656 83.847656 C 164.625 83.847656 164.902344 83.875 165.175781 83.929688 C 165.449219 83.984375 165.714844 84.066406 165.972656 84.171875 C 166.234375 84.28125 166.476562 84.410156 166.710938 84.566406 C 166.941406 84.722656 167.15625 84.898438 167.355469 85.097656 C 167.550781 85.292969 167.730469 85.511719 167.882812 85.742188 C 168.039062 85.976562 168.171875 86.222656 168.277344 86.480469 C 168.382812 86.738281 168.464844 87.003906 168.519531 87.277344 C 168.574219 87.554688 168.601562 87.832031 168.601562 88.109375 C 168.601562 88.390625 168.574219 88.667969 168.519531 88.941406 C 168.464844 89.214844 168.382812 89.480469 168.277344 89.738281 C 168.167969 90 168.039062 90.242188 167.882812 90.476562 C 167.726562 90.707031 167.550781 90.925781 167.351562 91.121094 C 167.15625 91.320312 166.941406 91.496094 166.707031 91.652344 C 166.476562 91.808594 166.230469 91.9375 165.972656 92.046875 C 165.714844 92.152344 165.449219 92.234375 165.175781 92.289062 C 164.902344 92.34375 164.625 92.371094 164.347656 92.371094 Z M 164.347656 84.175781 C 163.824219 84.175781 163.324219 84.277344 162.84375 84.476562 C 162.363281 84.675781 161.9375 84.960938 161.570312 85.328125 C 161.203125 85.699219 160.917969 86.121094 160.71875 86.605469 C 160.519531 87.085938 160.417969 87.589844 160.417969 88.109375 C 160.417969 88.632812 160.519531 89.132812 160.71875 89.617188 C 160.917969 90.097656 161.203125 90.523438 161.570312 90.890625 C 161.9375 91.261719 162.363281 91.542969 162.84375 91.742188 C 163.324219 91.945312 163.824219 92.042969 164.347656 92.042969 C 164.867188 92.042969 165.367188 91.945312 165.847656 91.742188 C 166.332031 91.542969 166.753906 91.261719 167.125 90.890625 C 167.492188 90.523438 167.777344 90.097656 167.976562 89.617188 C 168.175781 89.132812 168.273438 88.632812 168.273438 88.109375 C 168.273438 87.589844 168.171875 87.085938 167.972656 86.605469 C 167.773438 86.125 167.488281 85.699219 167.121094 85.328125 C 166.753906 84.960938 166.328125 84.675781 165.847656 84.476562 C 165.367188 84.277344 164.867188 84.175781 164.347656 84.175781 Z M 164.347656 84.175781 "/>
<g clip-path="url(#clip4)" clip-rule="nonzero">
<path style=" stroke:none;fill-rule:nonzero;fill:rgb(24.708557%,23.919678%,33.729553%);fill-opacity:1;" d="M 148.546875 158.265625 L 300.484375 158.265625 L 300.484375 158.558594 L 148.546875 158.558594 Z M 148.546875 158.265625 "/>
</g>
<path style=" stroke:none;fill-rule:nonzero;fill:rgb(24.708557%,23.919678%,33.729553%);fill-opacity:1;" d="M 188.847656 98.214844 L 222.75 98.214844 L 222.75 114.753906 L 188.847656 114.753906 Z M 188.847656 98.214844 "/>
<path style=" stroke:none;fill-rule:nonzero;fill:rgb(100%,100%,100%);fill-opacity:1;" d="M 205.675781 103.886719 L 205.964844 103.886719 L 205.964844 114.777344 L 205.675781 114.777344 Z M 205.675781 103.886719 "/>
<path style=" stroke:none;fill-rule:nonzero;fill:rgb(100%,87.059021%,9.01947%);fill-opacity:1;" d="M 207.359375 104.03125 C 207.359375 104.234375 207.320312 104.433594 207.242188 104.621094 C 207.164062 104.808594 207.050781 104.976562 206.90625 105.121094 C 206.765625 105.265625 206.597656 105.375 206.410156 105.453125 C 206.21875 105.53125 206.023438 105.570312 205.820312 105.570312 C 205.617188 105.570312 205.421875 105.53125 205.230469 105.453125 C 205.042969 105.375 204.878906 105.265625 204.734375 105.121094 C 204.589844 104.976562 204.476562 104.808594 204.398438 104.621094 C 204.320312 104.433594 204.28125 104.234375 204.28125 104.03125 C 204.28125 103.828125 204.320312 103.632812 204.398438 103.441406 C 204.476562 103.253906 204.589844 103.085938 204.734375 102.941406 C 204.878906 102.796875 205.042969 102.6875 205.230469 102.609375 C 205.421875 102.53125 205.617188 102.492188 205.820312 102.492188 C 206.023438 102.492188 206.21875 102.53125 206.410156 102.609375 C 206.597656 102.6875 206.765625 102.796875 206.90625 102.941406 C 207.050781 103.085938 207.164062 103.253906 207.242188 103.441406 C 207.320312 103.632812 207.359375 103.828125 207.359375 104.03125 Z M 207.359375 104.03125 "/>
<path style=" stroke:none;fill-rule:nonzero;fill:rgb(100%,100%,100%);fill-opacity:1;" d="M 205.820312 110.597656 C 205.820312 110.597656 205.601562 105.867188 201.097656 106.414062 "/>
<path style=" stroke:none;fill-rule:nonzero;fill:rgb(98.429871%,74.508667%,74.508667%);fill-opacity:1;" d="M 252.878906 143.203125 L 234.074219 149.097656 L 210.683594 134.3125 L 210.605469 134.265625 L 210.59375 134.253906 L 210.40625 134.136719 L 208.179688 132.734375 C 208.183594 132.695312 208.1875 132.660156 208.195312 132.625 C 208.230469 132.449219 208.308594 132.292969 208.425781 132.15625 C 208.464844 132.109375 208.511719 132.0625 208.558594 132.023438 C 208.582031 132.003906 208.601562 131.988281 208.625 131.972656 C 208.648438 131.953125 208.671875 131.9375 208.699219 131.921875 C 209.128906 131.632812 209.777344 131.507812 210.453125 131.472656 C 211.941406 131.402344 213.347656 131.707031 214.671875 132.386719 C 217.300781 133.71875 222.953125 136.339844 223.832031 134.734375 C 224.988281 132.628906 211.855469 109.164062 211.855469 109.164062 C 210.777344 106.382812 211.566406 105.472656 212.0625 105.1875 C 212.078125 105.179688 212.09375 105.167969 212.105469 105.164062 C 212.160156 105.136719 212.210938 105.113281 212.269531 105.09375 C 212.296875 105.082031 212.328125 105.074219 212.359375 105.066406 C 212.367188 105.0625 212.375 105.0625 212.382812 105.0625 L 214.125 107.378906 L 214.148438 107.414062 L 214.242188 107.539062 L 214.273438 107.578125 L 224.832031 121.632812 C 241.007812 112.902344 246.578125 136.261719 246.578125 136.261719 Z M 252.878906 143.203125 "/>
<path style=" stroke:none;fill-rule:nonzero;fill:rgb(24.708557%,23.919678%,33.729553%);fill-opacity:1;" d="M 214.273438 107.578125 C 214.1875 107.753906 214.046875 107.839844 213.847656 107.835938 C 213.789062 107.835938 213.734375 107.828125 213.675781 107.8125 C 213.285156 107.707031 212.832031 107.277344 212.496094 106.691406 C 212.164062 106.121094 212.027344 105.542969 212.105469 105.164062 C 212.160156 105.136719 212.210938 105.113281 212.269531 105.09375 C 212.296875 105.082031 212.328125 105.074219 212.359375 105.066406 C 212.222656 105.332031 212.304688 105.9375 212.675781 106.585938 C 212.984375 107.117188 213.398438 107.519531 213.730469 107.609375 C 213.816406 107.644531 213.902344 107.640625 213.984375 107.59375 C 214.066406 107.542969 214.113281 107.472656 214.125 107.378906 L 214.148438 107.414062 L 214.242188 107.539062 Z M 214.273438 107.578125 "/>
<path style=" stroke:none;fill-rule:nonzero;fill:rgb(24.708557%,23.919678%,33.729553%);fill-opacity:1;" d="M 210.605469 134.265625 L 210.59375 134.253906 L 210.40625 134.136719 C 210.40625 133.839844 210.179688 133.347656 209.679688 132.855469 C 209.257812 132.441406 208.765625 132.167969 208.425781 132.15625 C 208.464844 132.109375 208.511719 132.0625 208.558594 132.023438 C 208.582031 132.003906 208.601562 131.988281 208.625 131.972656 C 209.089844 132.109375 209.492188 132.351562 209.828125 132.703125 C 210.378906 133.246094 210.679688 133.863281 210.605469 134.265625 Z M 210.605469 134.265625 "/>
<g clip-path="url(#clip5)" clip-rule="nonzero">
<path style=" stroke:none;fill-rule:nonzero;fill:rgb(100%,87.059021%,9.01947%);fill-opacity:1;" d="M 287.027344 134.246094 C 291.15625 146.691406 289.707031 158.375 289.707031 158.375 C 289.707031 158.375 281.5625 149.882812 277.4375 137.4375 C 273.308594 124.996094 274.757812 113.3125 274.757812 113.3125 C 274.757812 113.3125 282.898438 121.800781 287.027344 134.246094 Z M 287.027344 134.246094 "/>
</g>
<g clip-path="url(#clip6)" clip-rule="nonzero">
<path style=" stroke:none;fill-rule:nonzero;fill:rgb(100%,87.059021%,9.01947%);fill-opacity:1;" d="M 292.386719 134.246094 C 288.257812 146.691406 289.707031 158.375 289.707031 158.375 C 289.707031 158.375 297.847656 149.882812 301.976562 137.4375 C 306.105469 124.996094 304.65625 113.3125 304.65625 113.3125 C 304.65625 113.3125 296.511719 121.800781 292.386719 134.246094 Z M 292.386719 134.246094 "/>
</g>
<g clip-path="url(#clip7)" clip-rule="nonzero">
<path style=" stroke:none;fill-rule:nonzero;fill:rgb(24.708557%,23.919678%,33.729553%);fill-opacity:1;" d="M 294.046875 134.382812 C 294.324219 147.492188 289.496094 158.226562 289.496094 158.226562 C 289.496094 158.226562 284.21875 147.707031 283.941406 134.59375 C 283.664062 121.484375 288.492188 110.75 288.492188 110.75 C 288.492188 110.75 293.769531 121.269531 294.046875 134.382812 Z M 294.046875 134.382812 "/>
</g>
<path style=" stroke:none;fill-rule:nonzero;fill:rgb(100%,87.059021%,9.01947%);fill-opacity:1;" d="M 290.277344 122.796875 C 290.277344 122.964844 290.242188 123.128906 290.179688 123.285156 C 290.113281 123.441406 290.019531 123.582031 289.902344 123.703125 C 289.78125 123.824219 289.640625 123.914062 289.484375 123.980469 C 289.328125 124.046875 289.164062 124.078125 288.996094 124.078125 C 288.824219 124.078125 288.660156 124.046875 288.503906 123.980469 C 288.347656 123.914062 288.207031 123.824219 288.089844 123.703125 C 287.96875 123.582031 287.875 123.441406 287.8125 123.285156 C 287.746094 123.128906 287.714844 122.964844 287.714844 122.796875 C 287.714844 122.625 287.746094 122.460938 287.8125 122.304688 C 287.875 122.148438 287.96875 122.007812 288.089844 121.886719 C 288.207031 121.765625 288.347656 121.675781 288.503906 121.609375 C 288.660156 121.542969 288.824219 121.511719 288.996094 121.511719 C 289.164062 121.511719 289.328125 121.542969 289.484375 121.609375 C 289.640625 121.675781 289.78125 121.765625 289.902344 121.886719 C 290.019531 122.007812 290.113281 122.148438 290.179688 122.304688 C 290.242188 122.460938 290.277344 122.625 290.277344 122.796875 Z M 290.277344 122.796875 "/>
<path style=" stroke:none;fill-rule:nonzero;fill:rgb(100%,87.059021%,9.01947%);fill-opacity:1;" d="M 287.214844 133.0625 C 287.214844 133.257812 287.144531 133.425781 287.007812 133.566406 C 286.867188 133.707031 286.699219 133.773438 286.503906 133.773438 C 286.308594 133.773438 286.140625 133.707031 286 133.566406 C 285.859375 133.425781 285.792969 133.257812 285.792969 133.0625 C 285.792969 132.867188 285.859375 132.699219 286 132.558594 C 286.140625 132.417969 286.308594 132.347656 286.503906 132.347656 C 286.699219 132.347656 286.867188 132.417969 287.007812 132.558594 C 287.144531 132.699219 287.214844 132.867188 287.214844 133.0625 Z M 287.214844 133.0625 "/>
<path style=" stroke:none;fill-rule:nonzero;fill:rgb(24.708557%,23.919678%,33.729553%);fill-opacity:1;" d="M 278.53125 126.003906 C 278.53125 126.199219 278.460938 126.367188 278.320312 126.507812 C 278.183594 126.648438 278.015625 126.714844 277.820312 126.714844 C 277.621094 126.714844 277.453125 126.648438 277.316406 126.507812 C 277.175781 126.367188 277.105469 126.199219 277.105469 126.003906 C 277.105469 125.804688 277.175781 125.636719 277.316406 125.5 C 277.453125 125.359375 277.621094 125.289062 277.820312 125.289062 C 278.015625 125.289062 278.183594 125.359375 278.320312 125.5 C 278.460938 125.636719 278.53125 125.804688 278.53125 126.003906 Z M 278.53125 126.003906 "/>
<path style=" stroke:none;fill-rule:nonzero;fill:rgb(24.708557%,23.919678%,33.729553%);fill-opacity:1;" d="M 303.660156 119.085938 C 303.660156 119.285156 303.589844 119.453125 303.449219 119.589844 C 303.3125 119.730469 303.144531 119.800781 302.945312 119.800781 C 302.75 119.800781 302.582031 119.730469 302.445312 119.589844 C 302.304688 119.453125 302.234375 119.285156 302.234375 119.085938 C 302.234375 118.890625 302.304688 118.722656 302.445312 118.582031 C 302.582031 118.445312 302.75 118.375 302.945312 118.375 C 303.144531 118.375 303.3125 118.445312 303.449219 118.582031 C 303.589844 118.722656 303.660156 118.890625 303.660156 119.085938 Z M 303.660156 119.085938 "/>
<path style=" stroke:none;fill-rule:nonzero;fill:rgb(24.708557%,23.919678%,33.729553%);fill-opacity:1;" d="M 282.230469 132.707031 C 282.230469 132.902344 282.164062 133.070312 282.023438 133.210938 C 281.886719 133.347656 281.71875 133.417969 281.519531 133.417969 C 281.324219 133.417969 281.15625 133.347656 281.015625 133.210938 C 280.878906 133.070312 280.808594 132.902344 280.808594 132.707031 C 280.808594 132.507812 280.878906 132.339844 281.015625 132.203125 C 281.15625 132.0625 281.324219 131.992188 281.519531 131.992188 C 281.71875 131.992188 281.886719 132.0625 282.023438 132.203125 C 282.164062 132.339844 282.230469 132.507812 282.230469 132.707031 Z M 282.230469 132.707031 "/>
<path style=" stroke:none;fill-rule:nonzero;fill:rgb(24.708557%,23.919678%,33.729553%);fill-opacity:1;" d="M 297.179688 128.570312 C 297.179688 128.765625 297.113281 128.933594 296.972656 129.074219 C 296.832031 129.214844 296.664062 129.285156 296.46875 129.285156 C 296.273438 129.285156 296.105469 129.214844 295.964844 129.074219 C 295.828125 128.933594 295.757812 128.765625 295.757812 128.570312 C 295.757812 128.375 295.828125 128.207031 295.964844 128.066406 C 296.105469 127.925781 296.273438 127.855469 296.46875 127.855469 C 296.664062 127.855469 296.832031 127.925781 296.972656 128.066406 C 297.113281 128.207031 297.179688 128.375 297.179688 128.570312 Z M 297.179688 128.570312 "/>
<path style=" stroke:none;fill-rule:nonzero;fill:rgb(24.708557%,23.919678%,33.729553%);fill-opacity:1;" d="M 282.660156 143.1875 C 282.660156 143.382812 282.589844 143.550781 282.449219 143.691406 C 282.3125 143.832031 282.144531 143.898438 281.949219 143.898438 C 281.75 143.898438 281.582031 143.832031 281.445312 143.691406 C 281.304688 143.550781 281.234375 143.382812 281.234375 143.1875 C 281.234375 142.988281 281.304688 142.820312 281.445312 142.683594 C 281.582031 142.542969 281.75 142.472656 281.949219 142.472656 C 282.144531 142.472656 282.3125 142.542969 282.449219 142.683594 C 282.589844 142.820312 282.660156 142.988281 282.660156 143.1875 Z M 282.660156 143.1875 "/>
<path style=" stroke:none;fill-rule:nonzero;fill:rgb(24.708557%,23.919678%,33.729553%);fill-opacity:1;" d="M 297.894531 139.121094 C 297.894531 139.320312 297.824219 139.488281 297.683594 139.628906 C 297.546875 139.765625 297.378906 139.835938 297.179688 139.835938 C 296.984375 139.835938 296.816406 139.765625 296.675781 139.628906 C 296.539062 139.488281 296.46875 139.320312 296.46875 139.121094 C 296.46875 138.925781 296.539062 138.757812 296.675781 138.617188 C 296.816406 138.480469 296.984375 138.410156 297.179688 138.410156 C 297.378906 138.410156 297.546875 138.480469 297.683594 138.617188 C 297.824219 138.757812 297.894531 138.925781 297.894531 139.121094 Z M 297.894531 139.121094 "/>
<path style=" stroke:none;fill-rule:nonzero;fill:rgb(100%,87.059021%,9.01947%);fill-opacity:1;" d="M 290.988281 139.835938 C 290.988281 140.03125 290.917969 140.199219 290.78125 140.339844 C 290.640625 140.480469 290.472656 140.550781 290.277344 140.550781 C 290.078125 140.550781 289.910156 140.480469 289.773438 140.339844 C 289.632812 140.199219 289.5625 140.03125 289.5625 139.835938 C 289.5625 139.640625 289.632812 139.472656 289.773438 139.332031 C 289.910156 139.191406 290.078125 139.121094 290.277344 139.121094 C 290.472656 139.121094 290.640625 139.191406 290.78125 139.332031 C 290.917969 139.472656 290.988281 139.640625 290.988281 139.835938 Z M 290.988281 139.835938 "/>
<g clip-path="url(#clip8)" clip-rule="nonzero">
<g clip-path="url(#clip9)" clip-rule="nonzero">
<g clip-path="url(#clip10)" clip-rule="nonzero">
<g clip-path="url(#clip11)" clip-rule="nonzero">
<path style=" stroke:none;fill-rule:nonzero;fill:rgb(92.89856%,10.998535%,14.099121%);fill-opacity:1;" d="M 283.265625 85.285156 L 277.128906 91.421875 L 283.265625 97.5625 L 289.40625 91.421875 Z M 283.265625 85.285156 "/>
</g>
</g>
</g>
</g>
<g clip-path="url(#clip12)" clip-rule="nonzero">
<g clip-path="url(#clip13)" clip-rule="nonzero">
<path style=" stroke:none;fill-rule:nonzero;fill:rgb(23.498535%,72.898865%,32.899475%);fill-opacity:1;" d="M 157.949219 105.15625 L 157.949219 120.800781 L 173.675781 120.800781 L 173.675781 105.15625 Z M 157.949219 105.15625 "/>
</g>
</g>
<g clip-path="url(#clip14)" clip-rule="nonzero">
<g clip-path="url(#clip15)" clip-rule="nonzero">
<path style=" stroke:none;fill-rule:nonzero;fill:rgb(100%,87.098694%,8.999634%);fill-opacity:1;" d="M 254.339844 145.59375 L 254.339844 150.085938 L 258.832031 150.085938 L 258.832031 145.59375 Z M 254.339844 145.59375 "/>
</g>
</g>
<g clip-path="url(#clip16)" clip-rule="nonzero">
<g clip-path="url(#clip17)" clip-rule="nonzero">
<path style=" stroke:none;fill-rule:nonzero;fill:rgb(28.199768%,52.198792%,92.89856%);fill-opacity:1;" d="M 214.644531 62.203125 L 214.644531 69.691406 L 222.132812 69.691406 L 222.132812 62.203125 Z M 214.644531 62.203125 "/>
</g>
</g>
</g>
</svg>
