<?xml version="1.0" encoding="UTF-8"?>
<svg xmlns="http://www.w3.org/2000/svg" xmlns:xlink="http://www.w3.org/1999/xlink" width="453.75pt" height="226.499993pt" viewBox="0 0 453.75 226.499993" version="1.2">
<defs>
<clipPath id="clip1">
  <path d="M 0.375 0 L 453.125 0 L 453.125 226 L 0.375 226 Z M 0.375 0 "/>
</clipPath>
<clipPath id="clip2">
  <path d="M 148.035156 122 L 251 122 L 251 131 L 148.035156 131 Z M 148.035156 122 "/>
</clipPath>
<clipPath id="clip3">
  <path d="M 204 145 L 305.039062 145 L 305.039062 146 L 204 146 Z M 204 145 "/>
</clipPath>
<clipPath id="clip4">
  <path d="M 174 158 L 210 158 L 210 158.519531 L 174 158.519531 Z M 174 158 "/>
</clipPath>
<clipPath id="clip5">
  <path d="M 259 67.917969 L 264 67.917969 L 264 73 L 259 73 Z M 259 67.917969 "/>
</clipPath>
<clipPath id="clip6">
  <path d="M 180 134 L 205 134 L 205 158.519531 L 180 158.519531 Z M 180 134 "/>
</clipPath>
<clipPath id="clip7">
  <path d="M 141.046875 60.15625 L 154.523438 60.15625 L 154.523438 73.632812 L 141.046875 73.632812 Z M 141.046875 60.15625 "/>
</clipPath>
<clipPath id="clip8">
  <path d="M 148.480469 72.929688 L 148.480469 67.585938 L 153.84375 67.585938 C 154.21875 67.585938 154.523438 67.277344 154.523438 66.90625 C 154.523438 66.53125 154.21875 66.222656 153.84375 66.222656 L 148.5 66.222656 L 148.5 60.835938 C 148.5 60.460938 148.191406 60.15625 147.820312 60.15625 C 147.445312 60.15625 147.136719 60.460938 147.136719 60.835938 L 147.136719 66.179688 L 141.796875 66.179688 C 141.421875 66.179688 141.113281 66.488281 141.113281 66.859375 C 141.113281 67.234375 141.421875 67.542969 141.796875 67.542969 L 147.09375 67.542969 L 147.09375 72.886719 C 147.09375 73.257812 147.402344 73.566406 147.773438 73.566406 C 148.171875 73.632812 148.480469 73.304688 148.480469 72.929688 Z M 148.480469 72.929688 "/>
</clipPath>
<clipPath id="clip9">
  <path d="M 297 117.402344 L 305.234375 117.402344 L 305.234375 125.636719 L 297 125.636719 Z M 297 117.402344 "/>
</clipPath>
<clipPath id="clip10">
  <path d="M 304.804688 121.097656 L 301.539062 121.097656 L 301.539062 117.820312 C 301.539062 117.589844 301.351562 117.402344 301.125 117.402344 C 300.894531 117.402344 300.707031 117.589844 300.707031 117.820312 L 300.707031 121.082031 L 297.414062 121.082031 C 297.1875 121.082031 297 121.273438 297 121.5 C 297 121.730469 297.1875 121.917969 297.414062 121.917969 L 300.679688 121.917969 L 300.679688 125.183594 C 300.679688 125.410156 300.867188 125.597656 301.097656 125.597656 C 301.324219 125.597656 301.511719 125.410156 301.511719 125.183594 L 301.511719 121.945312 L 304.777344 121.945312 C 305.007812 121.945312 305.195312 121.753906 305.195312 121.527344 C 305.234375 121.285156 305.035156 121.097656 304.804688 121.097656 Z M 304.804688 121.097656 "/>
</clipPath>
<clipPath id="clip11">
  <path d="M 243.066406 154.769531 L 250.554688 154.769531 L 250.554688 162.253906 L 243.066406 162.253906 Z M 243.066406 154.769531 "/>
</clipPath>
<clipPath id="clip12">
  <path d="M 250.554688 158.511719 C 250.554688 159.007812 250.460938 159.484375 250.269531 159.945312 C 250.082031 160.402344 249.808594 160.808594 249.457031 161.160156 C 249.109375 161.511719 248.703125 161.78125 248.246094 161.96875 C 247.785156 162.160156 247.308594 162.253906 246.8125 162.253906 C 246.316406 162.253906 245.835938 162.160156 245.378906 161.96875 C 244.921875 161.78125 244.515625 161.511719 244.164062 161.160156 C 243.8125 160.808594 243.542969 160.402344 243.351562 159.945312 C 243.164062 159.484375 243.066406 159.007812 243.066406 158.511719 C 243.066406 158.015625 243.164062 157.539062 243.351562 157.078125 C 243.542969 156.621094 243.8125 156.214844 244.164062 155.863281 C 244.515625 155.511719 244.921875 155.242188 245.378906 155.050781 C 245.835938 154.863281 246.316406 154.769531 246.8125 154.769531 C 247.308594 154.769531 247.785156 154.863281 248.246094 155.050781 C 248.703125 155.242188 249.109375 155.511719 249.457031 155.863281 C 249.808594 156.214844 250.082031 156.621094 250.269531 157.078125 C 250.460938 157.539062 250.554688 158.015625 250.554688 158.511719 Z M 250.554688 158.511719 "/>
</clipPath>
<clipPath id="clip13">
  <path d="M 238.828125 57.769531 L 242.570312 57.769531 L 242.570312 61.511719 L 238.828125 61.511719 Z M 238.828125 57.769531 "/>
</clipPath>
<clipPath id="clip14">
  <path d="M 242.570312 59.640625 C 242.570312 59.890625 242.523438 60.128906 242.429688 60.355469 C 242.332031 60.585938 242.199219 60.789062 242.023438 60.964844 C 241.847656 61.140625 241.644531 61.273438 241.414062 61.371094 C 241.183594 61.464844 240.945312 61.511719 240.699219 61.511719 C 240.449219 61.511719 240.210938 61.464844 239.980469 61.371094 C 239.753906 61.273438 239.550781 61.140625 239.375 60.964844 C 239.199219 60.789062 239.0625 60.585938 238.96875 60.355469 C 238.875 60.128906 238.828125 59.890625 238.828125 59.640625 C 238.828125 59.394531 238.875 59.152344 238.96875 58.925781 C 239.0625 58.695312 239.199219 58.492188 239.375 58.316406 C 239.550781 58.140625 239.753906 58.007812 239.980469 57.910156 C 240.210938 57.816406 240.449219 57.769531 240.699219 57.769531 C 240.945312 57.769531 241.183594 57.816406 241.414062 57.910156 C 241.644531 58.007812 241.847656 58.140625 242.023438 58.316406 C 242.199219 58.492188 242.332031 58.695312 242.429688 58.925781 C 242.523438 59.152344 242.570312 59.394531 242.570312 59.640625 Z M 242.570312 59.640625 "/>
</clipPath>
<clipPath id="clip15">
  <path d="M 148.035156 134.9375 L 157.769531 134.9375 L 157.769531 144.671875 L 148.035156 144.671875 Z M 148.035156 134.9375 "/>
</clipPath>
<clipPath id="clip16">
  <path d="M 157.769531 139.804688 C 157.769531 140.125 157.738281 140.441406 157.675781 140.753906 C 157.613281 141.070312 157.519531 141.375 157.398438 141.667969 C 157.273438 141.964844 157.125 142.246094 156.949219 142.511719 C 156.769531 142.777344 156.570312 143.023438 156.34375 143.246094 C 156.117188 143.472656 155.871094 143.675781 155.605469 143.851562 C 155.339844 144.03125 155.058594 144.179688 154.761719 144.300781 C 154.46875 144.425781 154.164062 144.515625 153.851562 144.578125 C 153.539062 144.640625 153.21875 144.671875 152.902344 144.671875 C 152.582031 144.671875 152.265625 144.640625 151.953125 144.578125 C 151.636719 144.515625 151.332031 144.425781 151.039062 144.300781 C 150.742188 144.179688 150.460938 144.03125 150.195312 143.851562 C 149.929688 143.675781 149.6875 143.472656 149.460938 143.246094 C 149.234375 143.023438 149.03125 142.777344 148.855469 142.511719 C 148.675781 142.246094 148.527344 141.964844 148.40625 141.667969 C 148.28125 141.375 148.191406 141.070312 148.128906 140.753906 C 148.066406 140.441406 148.035156 140.125 148.035156 139.804688 C 148.035156 139.488281 148.066406 139.171875 148.128906 138.855469 C 148.191406 138.542969 148.28125 138.238281 148.40625 137.945312 C 148.527344 137.648438 148.675781 137.367188 148.855469 137.101562 C 149.03125 136.835938 149.234375 136.589844 149.460938 136.363281 C 149.6875 136.136719 149.929688 135.9375 150.195312 135.757812 C 150.460938 135.582031 150.742188 135.433594 151.039062 135.308594 C 151.332031 135.1875 151.636719 135.09375 151.953125 135.03125 C 152.265625 134.96875 152.582031 134.9375 152.902344 134.9375 C 153.21875 134.9375 153.539062 134.96875 153.851562 135.03125 C 154.164062 135.09375 154.46875 135.1875 154.761719 135.308594 C 155.058594 135.433594 155.339844 135.582031 155.605469 135.757812 C 155.871094 135.9375 156.117188 136.136719 156.34375 136.363281 C 156.570312 136.589844 156.769531 136.835938 156.949219 137.101562 C 157.125 137.367188 157.273438 137.648438 157.398438 137.945312 C 157.519531 138.238281 157.613281 138.542969 157.675781 138.855469 C 157.738281 139.171875 157.769531 139.488281 157.769531 139.804688 Z M 157.769531 139.804688 "/>
</clipPath>
</defs>
<g id="surface1">
<g clip-path="url(#clip1)" clip-rule="nonzero">
<path style=" stroke:none;fill-rule:nonzero;fill:rgb(100%,100%,100%);fill-opacity:1;" d="M 0.375 0 L 453.375 0 L 453.375 232.863281 L 0.375 232.863281 Z M 0.375 0 "/>
<path style=" stroke:none;fill-rule:nonzero;fill:rgb(100%,100%,100%);fill-opacity:1;" d="M 0.375 0 L 453.375 0 L 453.375 226.125 L 0.375 226.125 Z M 0.375 0 "/>
<path style=" stroke:none;fill-rule:nonzero;fill:rgb(100%,100%,100%);fill-opacity:1;" d="M 0.375 0 L 453.375 0 L 453.375 226.125 L 0.375 226.125 Z M 0.375 0 "/>
</g>
<path style=" stroke:none;fill-rule:nonzero;fill:rgb(94.898987%,94.898987%,94.898987%);fill-opacity:1;" d="M 190.21875 140.15625 C 190.21875 140.695312 190.164062 141.226562 190.0625 141.753906 C 189.957031 142.285156 189.800781 142.796875 189.597656 143.292969 C 189.390625 143.789062 189.140625 144.261719 188.84375 144.710938 C 188.542969 145.15625 188.207031 145.574219 187.828125 145.953125 C 187.449219 146.332031 187.035156 146.671875 186.589844 146.972656 C 186.144531 147.269531 185.671875 147.523438 185.175781 147.730469 C 184.683594 147.9375 184.171875 148.089844 183.644531 148.195312 C 183.121094 148.300781 182.589844 148.355469 182.054688 148.355469 C 181.515625 148.355469 180.984375 148.300781 180.460938 148.195312 C 179.933594 148.089844 179.421875 147.9375 178.929688 147.730469 C 178.433594 147.523438 177.960938 147.269531 177.515625 146.972656 C 177.070312 146.671875 176.660156 146.332031 176.28125 145.953125 C 175.898438 145.574219 175.5625 145.15625 175.265625 144.710938 C 174.964844 144.261719 174.714844 143.789062 174.507812 143.292969 C 174.304688 142.796875 174.148438 142.285156 174.042969 141.753906 C 173.941406 141.226562 173.886719 140.695312 173.886719 140.15625 C 173.886719 139.617188 173.941406 139.085938 174.042969 138.558594 C 174.148438 138.027344 174.304688 137.515625 174.507812 137.019531 C 174.714844 136.523438 174.964844 136.050781 175.265625 135.601562 C 175.5625 135.152344 175.898438 134.738281 176.28125 134.359375 C 176.660156 133.980469 177.070312 133.640625 177.515625 133.339844 C 177.960938 133.039062 178.433594 132.789062 178.929688 132.582031 C 179.421875 132.375 179.933594 132.21875 180.460938 132.117188 C 180.984375 132.011719 181.515625 131.957031 182.054688 131.957031 C 182.589844 131.957031 183.121094 132.011719 183.644531 132.117188 C 184.171875 132.21875 184.683594 132.375 185.175781 132.582031 C 185.671875 132.789062 186.144531 133.039062 186.589844 133.339844 C 187.035156 133.640625 187.449219 133.980469 187.828125 134.359375 C 188.207031 134.738281 188.542969 135.152344 188.84375 135.601562 C 189.140625 136.050781 189.390625 136.523438 189.597656 137.019531 C 189.800781 137.515625 189.957031 138.027344 190.0625 138.558594 C 190.164062 139.085938 190.21875 139.617188 190.21875 140.15625 Z M 190.21875 140.15625 "/>
<path style=" stroke:none;fill-rule:nonzero;fill:rgb(32.548523%,42.749023%,99.609375%);fill-opacity:1;" d="M 191.546875 138.957031 C 191.546875 139.496094 191.492188 140.027344 191.390625 140.554688 C 191.285156 141.082031 191.128906 141.597656 190.925781 142.09375 C 190.71875 142.589844 190.46875 143.0625 190.167969 143.511719 C 189.871094 143.957031 189.535156 144.371094 189.152344 144.753906 C 188.773438 145.132812 188.363281 145.472656 187.917969 145.773438 C 187.472656 146.070312 187 146.324219 186.503906 146.53125 C 186.011719 146.734375 185.5 146.890625 184.972656 146.996094 C 184.449219 147.101562 183.917969 147.152344 183.378906 147.152344 C 182.84375 147.152344 182.3125 147.101562 181.789062 146.996094 C 181.261719 146.890625 180.75 146.734375 180.257812 146.53125 C 179.761719 146.324219 179.289062 146.070312 178.84375 145.773438 C 178.398438 145.472656 177.984375 145.132812 177.605469 144.753906 C 177.226562 144.371094 176.890625 143.957031 176.589844 143.511719 C 176.292969 143.0625 176.042969 142.589844 175.835938 142.09375 C 175.632812 141.597656 175.476562 141.082031 175.371094 140.554688 C 175.269531 140.027344 175.214844 139.496094 175.214844 138.957031 C 175.214844 138.417969 175.269531 137.886719 175.371094 137.355469 C 175.476562 136.828125 175.632812 136.316406 175.835938 135.820312 C 176.042969 135.320312 176.292969 134.847656 176.589844 134.402344 C 176.890625 133.953125 177.226562 133.539062 177.605469 133.160156 C 177.984375 132.777344 178.398438 132.4375 178.84375 132.140625 C 179.289062 131.839844 179.761719 131.589844 180.257812 131.382812 C 180.75 131.175781 181.261719 131.019531 181.789062 130.914062 C 182.3125 130.8125 182.84375 130.757812 183.378906 130.757812 C 183.917969 130.757812 184.449219 130.8125 184.972656 130.914062 C 185.5 131.019531 186.011719 131.175781 186.503906 131.382812 C 187 131.589844 187.472656 131.839844 187.917969 132.140625 C 188.363281 132.4375 188.773438 132.777344 189.152344 133.160156 C 189.535156 133.539062 189.871094 133.953125 190.167969 134.402344 C 190.46875 134.847656 190.71875 135.320312 190.925781 135.820312 C 191.128906 136.316406 191.285156 136.828125 191.390625 137.355469 C 191.492188 137.886719 191.546875 138.417969 191.546875 138.957031 Z M 191.546875 138.957031 "/>
<path style=" stroke:none;fill-rule:nonzero;fill:rgb(24.708557%,23.919678%,33.729553%);fill-opacity:1;" d="M 189.957031 129.886719 L 290.980469 129.886719 L 290.980469 130.164062 L 189.957031 130.164062 Z M 189.957031 129.886719 "/>
<path style=" stroke:none;fill-rule:nonzero;fill:rgb(24.708557%,23.919678%,33.729553%);fill-opacity:1;" d="M 242.277344 70.535156 L 206.417969 70.535156 L 206.417969 69.792969 L 190.160156 69.792969 L 190.160156 70.535156 L 154.15625 70.535156 C 153.832031 70.535156 153.523438 70.597656 153.226562 70.722656 C 152.929688 70.84375 152.667969 71.019531 152.441406 71.25 C 152.210938 71.476562 152.035156 71.742188 151.914062 72.039062 C 151.789062 72.339844 151.730469 72.648438 151.730469 72.972656 L 151.730469 122.269531 C 151.730469 122.59375 151.789062 122.902344 151.914062 123.199219 C 152.035156 123.5 152.210938 123.761719 152.441406 123.992188 C 152.667969 124.21875 152.929688 124.394531 153.226562 124.519531 C 153.523438 124.640625 153.832031 124.703125 154.15625 124.703125 L 242.277344 124.703125 C 242.597656 124.703125 242.910156 124.640625 243.207031 124.519531 C 243.503906 124.394531 243.765625 124.21875 243.992188 123.992188 C 244.21875 123.761719 244.394531 123.5 244.519531 123.199219 C 244.640625 122.902344 244.703125 122.59375 244.703125 122.269531 L 244.703125 72.972656 C 244.703125 72.648438 244.640625 72.339844 244.519531 72.039062 C 244.394531 71.742188 244.21875 71.476562 243.992188 71.25 C 243.765625 71.019531 243.503906 70.84375 243.207031 70.722656 C 242.910156 70.597656 242.597656 70.535156 242.277344 70.535156 Z M 242.277344 70.535156 "/>
<path style=" stroke:none;fill-rule:nonzero;fill:rgb(32.548523%,42.749023%,99.609375%);fill-opacity:1;" d="M 154.980469 74.839844 L 241.453125 74.839844 L 241.453125 123.8125 L 154.980469 123.8125 Z M 154.980469 74.839844 "/>
<path style=" stroke:none;fill-rule:nonzero;fill:rgb(32.548523%,42.749023%,99.609375%);fill-opacity:1;" d="M 199.027344 72.613281 C 199.027344 72.859375 198.941406 73.070312 198.769531 73.242188 C 198.597656 73.417969 198.386719 73.503906 198.140625 73.503906 C 197.898438 73.503906 197.6875 73.417969 197.515625 73.242188 C 197.34375 73.070312 197.253906 72.859375 197.253906 72.613281 C 197.253906 72.367188 197.34375 72.15625 197.515625 71.984375 C 197.6875 71.808594 197.898438 71.722656 198.140625 71.722656 C 198.386719 71.722656 198.597656 71.808594 198.769531 71.984375 C 198.941406 72.15625 199.027344 72.367188 199.027344 72.613281 Z M 199.027344 72.613281 "/>
<path style=" stroke:none;fill-rule:nonzero;fill:rgb(0%,0%,0%);fill-opacity:0.098;" d="M 216.722656 123.8125 L 154.980469 123.8125 L 154.980469 74.839844 Z M 216.722656 123.8125 "/>
<path style=" stroke:none;fill-rule:nonzero;fill:rgb(94.898987%,94.898987%,94.898987%);fill-opacity:1;" d="M 176.824219 111.804688 C 176.824219 112.351562 176.769531 112.894531 176.664062 113.433594 C 176.558594 113.96875 176.398438 114.492188 176.191406 114.996094 C 175.980469 115.503906 175.726562 115.984375 175.421875 116.441406 C 175.117188 116.894531 174.773438 117.316406 174.386719 117.703125 C 174.003906 118.09375 173.582031 118.4375 173.128906 118.742188 C 172.675781 119.046875 172.195312 119.304688 171.691406 119.515625 C 171.1875 119.722656 170.667969 119.882812 170.132812 119.988281 C 169.597656 120.09375 169.058594 120.148438 168.511719 120.148438 C 167.964844 120.148438 167.425781 120.09375 166.890625 119.988281 C 166.355469 119.882812 165.835938 119.722656 165.332031 119.515625 C 164.828125 119.304688 164.347656 119.046875 163.894531 118.742188 C 163.441406 118.4375 163.019531 118.09375 162.632812 117.703125 C 162.25 117.316406 161.902344 116.894531 161.601562 116.441406 C 161.296875 115.984375 161.042969 115.503906 160.832031 114.996094 C 160.625 114.492188 160.464844 113.96875 160.359375 113.433594 C 160.253906 112.894531 160.199219 112.351562 160.199219 111.804688 C 160.199219 111.257812 160.253906 110.714844 160.359375 110.175781 C 160.464844 109.636719 160.625 109.117188 160.832031 108.609375 C 161.042969 108.105469 161.296875 107.625 161.601562 107.167969 C 161.902344 106.710938 162.25 106.289062 162.632812 105.902344 C 163.019531 105.515625 163.441406 105.167969 163.894531 104.863281 C 164.347656 104.5625 164.828125 104.304688 165.332031 104.09375 C 165.835938 103.882812 166.355469 103.726562 166.890625 103.617188 C 167.425781 103.511719 167.964844 103.457031 168.511719 103.457031 C 169.058594 103.457031 169.597656 103.511719 170.132812 103.617188 C 170.667969 103.726562 171.1875 103.882812 171.691406 104.09375 C 172.195312 104.304688 172.675781 104.5625 173.128906 104.863281 C 173.582031 105.167969 174.003906 105.515625 174.386719 105.902344 C 174.773438 106.289062 175.117188 106.710938 175.421875 107.167969 C 175.726562 107.625 175.980469 108.105469 176.191406 108.609375 C 176.398438 109.117188 176.558594 109.636719 176.664062 110.175781 C 176.769531 110.714844 176.824219 111.257812 176.824219 111.804688 Z M 176.824219 111.804688 "/>
<path style=" stroke:none;fill-rule:nonzero;fill:rgb(24.708557%,23.919678%,33.729553%);fill-opacity:1;" d="M 218.316406 101.253906 L 226.394531 101.253906 L 226.394531 102.945312 L 218.316406 102.945312 Z M 218.316406 101.253906 "/>
<path style=" stroke:none;fill-rule:nonzero;fill:rgb(24.708557%,23.919678%,33.729553%);fill-opacity:1;" d="M 208.554688 88.058594 L 236.160156 88.058594 L 236.160156 88.785156 L 208.554688 88.785156 Z M 208.554688 88.058594 "/>
<path style=" stroke:none;fill-rule:nonzero;fill:rgb(24.708557%,23.919678%,33.729553%);fill-opacity:1;" d="M 208.554688 90.359375 L 236.160156 90.359375 L 236.160156 91.085938 L 208.554688 91.085938 Z M 208.554688 90.359375 "/>
<path style=" stroke:none;fill-rule:nonzero;fill:rgb(24.708557%,23.919678%,33.729553%);fill-opacity:1;" d="M 208.554688 92.65625 L 236.160156 92.65625 L 236.160156 93.382812 L 208.554688 93.382812 Z M 208.554688 92.65625 "/>
<path style=" stroke:none;fill-rule:nonzero;fill:rgb(24.708557%,23.919678%,33.729553%);fill-opacity:1;" d="M 208.554688 94.957031 L 236.160156 94.957031 L 236.160156 95.683594 L 208.554688 95.683594 Z M 208.554688 94.957031 "/>
<path style=" stroke:none;fill-rule:nonzero;fill:rgb(24.708557%,23.919678%,33.729553%);fill-opacity:1;" d="M 208.554688 97.257812 L 236.160156 97.257812 L 236.160156 97.984375 L 208.554688 97.984375 Z M 208.554688 97.257812 "/>
<path style=" stroke:none;fill-rule:nonzero;fill:rgb(94.898987%,94.898987%,94.898987%);fill-opacity:1;" d="M 232.785156 75.832031 L 236.160156 75.832031 L 236.160156 79.222656 L 232.785156 79.222656 Z M 232.785156 75.832031 "/>
<path style=" stroke:none;fill-rule:nonzero;fill:rgb(24.708557%,23.919678%,33.729553%);fill-opacity:1;" d="M 237.726562 80.796875 L 233.628906 80.796875 L 233.628906 76.679688 L 237.726562 76.679688 Z M 233.808594 80.617188 L 237.550781 80.617188 L 237.550781 76.859375 L 233.808594 76.859375 Z M 233.808594 80.617188 "/>
<g clip-path="url(#clip2)" clip-rule="nonzero">
<path style=" stroke:none;fill-rule:nonzero;fill:rgb(24.708557%,23.919678%,33.729553%);fill-opacity:1;" d="M 247.132812 122.921875 L 238.691406 122.921875 L 238.691406 122.3125 C 238.691406 122.230469 238.652344 122.191406 238.570312 122.191406 L 235.679688 122.191406 C 235.597656 122.191406 235.558594 122.230469 235.558594 122.3125 L 235.558594 122.921875 L 233.75 122.921875 L 233.75 122.3125 C 233.75 122.230469 233.710938 122.191406 233.628906 122.191406 L 230.734375 122.191406 C 230.65625 122.191406 230.613281 122.230469 230.613281 122.3125 L 230.613281 122.921875 L 228.804688 122.921875 L 228.804688 122.3125 C 228.804688 122.230469 228.765625 122.191406 228.6875 122.191406 L 225.792969 122.191406 C 225.710938 122.191406 225.671875 122.230469 225.671875 122.3125 L 225.671875 122.921875 L 223.863281 122.921875 L 223.863281 122.3125 C 223.863281 122.230469 223.824219 122.191406 223.742188 122.191406 L 220.851562 122.191406 C 220.769531 122.191406 220.730469 122.230469 220.730469 122.3125 L 220.730469 122.921875 L 218.921875 122.921875 L 218.921875 122.3125 C 218.921875 122.230469 218.878906 122.191406 218.800781 122.191406 L 215.90625 122.191406 C 215.828125 122.191406 215.785156 122.230469 215.785156 122.3125 L 215.785156 122.921875 L 213.976562 122.921875 L 213.976562 122.3125 C 213.976562 122.230469 213.9375 122.191406 213.859375 122.191406 L 210.964844 122.191406 C 210.882812 122.191406 210.84375 122.230469 210.84375 122.3125 L 210.84375 122.921875 L 209.035156 122.921875 L 209.035156 122.3125 C 209.035156 122.230469 208.996094 122.191406 208.914062 122.191406 L 186.25 122.191406 C 186.167969 122.191406 186.128906 122.230469 186.128906 122.3125 L 186.128906 122.921875 L 184.320312 122.921875 L 184.320312 122.3125 C 184.320312 122.230469 184.28125 122.191406 184.199219 122.191406 L 181.308594 122.191406 C 181.226562 122.191406 181.1875 122.230469 181.1875 122.3125 L 181.1875 122.921875 L 179.378906 122.921875 L 179.378906 122.3125 C 179.378906 122.230469 179.339844 122.191406 179.257812 122.191406 L 176.363281 122.191406 C 176.285156 122.191406 176.246094 122.230469 176.246094 122.3125 L 176.246094 122.921875 L 174.4375 122.921875 L 174.4375 122.3125 C 174.4375 122.230469 174.394531 122.191406 174.316406 122.191406 L 171.421875 122.191406 C 171.339844 122.191406 171.300781 122.230469 171.300781 122.3125 L 171.300781 122.921875 L 169.492188 122.921875 L 169.492188 122.3125 C 169.492188 122.230469 169.453125 122.191406 169.371094 122.191406 L 166.480469 122.191406 C 166.398438 122.191406 166.359375 122.230469 166.359375 122.3125 L 166.359375 122.921875 L 164.550781 122.921875 L 164.550781 122.3125 C 164.550781 122.230469 164.511719 122.191406 164.429688 122.191406 L 161.535156 122.191406 C 161.457031 122.191406 161.414062 122.230469 161.414062 122.3125 L 161.414062 122.921875 L 159.605469 122.921875 L 159.605469 122.3125 C 159.609375 122.230469 159.566406 122.191406 159.488281 122.191406 L 156.59375 122.191406 C 156.511719 122.191406 156.472656 122.230469 156.472656 122.3125 L 156.472656 122.921875 L 150.925781 122.921875 C 150.542969 122.921875 150.175781 122.996094 149.820312 123.144531 C 149.464844 123.292969 149.152344 123.5 148.882812 123.773438 C 148.609375 124.046875 148.402344 124.359375 148.253906 124.714844 C 148.109375 125.074219 148.035156 125.441406 148.035156 125.828125 L 148.035156 127.140625 C 148.035156 127.527344 148.109375 127.898438 148.253906 128.253906 C 148.402344 128.609375 148.609375 128.921875 148.882812 129.195312 C 149.152344 129.46875 149.464844 129.679688 149.820312 129.824219 C 150.175781 129.972656 150.542969 130.046875 150.925781 130.046875 L 247.132812 130.046875 C 247.515625 130.046875 247.882812 129.972656 248.238281 129.824219 C 248.59375 129.679688 248.90625 129.46875 249.175781 129.195312 C 249.449219 128.921875 249.65625 128.609375 249.804688 128.253906 C 249.949219 127.898438 250.023438 127.527344 250.023438 127.140625 L 250.023438 125.828125 C 250.023438 125.441406 249.949219 125.074219 249.804688 124.714844 C 249.65625 124.359375 249.449219 124.046875 249.175781 123.773438 C 248.90625 123.5 248.59375 123.292969 248.238281 123.144531 C 247.882812 122.996094 247.515625 122.921875 247.132812 122.921875 Z M 247.132812 122.921875 "/>
</g>
<path style=" stroke:none;fill-rule:nonzero;fill:rgb(24.708557%,23.919678%,33.729553%);fill-opacity:1;" d="M 170.523438 117.015625 C 169.835938 117.015625 169.152344 116.949219 168.480469 116.8125 C 167.804688 116.679688 167.148438 116.480469 166.515625 116.214844 C 165.878906 115.953125 165.277344 115.628906 164.703125 115.242188 C 164.132812 114.859375 163.601562 114.425781 163.117188 113.9375 C 162.628906 113.449219 162.195312 112.917969 161.8125 112.34375 C 161.429688 111.769531 161.109375 111.164062 160.847656 110.523438 C 160.582031 109.886719 160.382812 109.230469 160.25 108.550781 C 160.117188 107.875 160.046875 107.191406 160.046875 106.5 C 160.046875 105.808594 160.117188 105.125 160.25 104.449219 C 160.382812 103.769531 160.582031 103.113281 160.847656 102.476562 C 161.109375 101.835938 161.429688 101.230469 161.8125 100.65625 C 162.195312 100.082031 162.628906 99.550781 163.117188 99.0625 C 163.601562 98.574219 164.132812 98.140625 164.703125 97.753906 C 165.277344 97.371094 165.878906 97.046875 166.515625 96.785156 C 167.148438 96.519531 167.804688 96.320312 168.480469 96.183594 C 169.152344 96.050781 169.835938 95.984375 170.523438 95.984375 C 171.210938 95.984375 171.890625 96.050781 172.566406 96.183594 C 173.242188 96.320312 173.894531 96.519531 174.53125 96.785156 C 175.167969 97.046875 175.769531 97.371094 176.34375 97.753906 C 176.914062 98.140625 177.445312 98.574219 177.929688 99.0625 C 178.417969 99.550781 178.851562 100.082031 179.234375 100.65625 C 179.613281 101.230469 179.9375 101.835938 180.199219 102.476562 C 180.464844 103.113281 180.664062 103.769531 180.796875 104.449219 C 180.929688 105.125 180.996094 105.808594 180.996094 106.5 C 180.996094 107.191406 180.929688 107.875 180.792969 108.550781 C 180.660156 109.226562 180.460938 109.882812 180.199219 110.523438 C 179.933594 111.160156 179.609375 111.765625 179.230469 112.339844 C 178.847656 112.914062 178.414062 113.445312 177.925781 113.933594 C 177.441406 114.421875 176.910156 114.855469 176.339844 115.242188 C 175.769531 115.625 175.164062 115.949219 174.53125 116.210938 C 173.894531 116.476562 173.238281 116.675781 172.566406 116.8125 C 171.890625 116.949219 171.210938 117.015625 170.523438 117.015625 Z M 170.523438 96.257812 C 169.851562 96.257812 169.191406 96.324219 168.535156 96.457031 C 167.875 96.585938 167.238281 96.78125 166.621094 97.039062 C 166 97.296875 165.414062 97.613281 164.855469 97.984375 C 164.300781 98.359375 163.785156 98.785156 163.3125 99.257812 C 162.835938 99.734375 162.414062 100.25 162.042969 100.808594 C 161.671875 101.371094 161.355469 101.960938 161.101562 102.582031 C 160.84375 103.203125 160.652344 103.84375 160.519531 104.5 C 160.390625 105.160156 160.324219 105.828125 160.324219 106.5 C 160.324219 107.171875 160.390625 107.835938 160.519531 108.496094 C 160.652344 109.15625 160.84375 109.796875 161.101562 110.417969 C 161.355469 111.039062 161.671875 111.628906 162.042969 112.1875 C 162.414062 112.746094 162.835938 113.265625 163.3125 113.742188 C 163.785156 114.214844 164.300781 114.640625 164.855469 115.015625 C 165.414062 115.386719 166 115.703125 166.621094 115.960938 C 167.238281 116.21875 167.875 116.410156 168.535156 116.542969 C 169.191406 116.675781 169.851562 116.738281 170.523438 116.738281 C 171.191406 116.738281 171.855469 116.675781 172.511719 116.542969 C 173.167969 116.410156 173.808594 116.21875 174.425781 115.960938 C 175.042969 115.703125 175.632812 115.386719 176.1875 115.015625 C 176.746094 114.640625 177.261719 114.214844 177.734375 113.742188 C 178.207031 113.265625 178.632812 112.746094 179.003906 112.1875 C 179.375 111.628906 179.691406 111.039062 179.945312 110.417969 C 180.203125 109.796875 180.394531 109.15625 180.527344 108.496094 C 180.65625 107.835938 180.722656 107.171875 180.722656 106.5 C 180.722656 105.828125 180.65625 105.160156 180.523438 104.503906 C 180.394531 103.84375 180.199219 103.203125 179.941406 102.582031 C 179.6875 101.960938 179.371094 101.371094 179 100.8125 C 178.628906 100.253906 178.203125 99.738281 177.730469 99.261719 C 177.257812 98.785156 176.742188 98.363281 176.1875 97.988281 C 175.628906 97.617188 175.042969 97.300781 174.425781 97.042969 C 173.804688 96.785156 173.167969 96.589844 172.511719 96.457031 C 171.855469 96.328125 171.191406 96.261719 170.523438 96.257812 Z M 170.523438 96.257812 "/>
<path style=" stroke:none;fill-rule:nonzero;fill:rgb(24.708557%,23.919678%,33.729553%);fill-opacity:1;" d="M 228.824219 72.457031 L 263.96875 72.457031 L 263.96875 72.734375 L 228.824219 72.734375 Z M 228.824219 72.457031 "/>
<g clip-path="url(#clip3)" clip-rule="nonzero">
<path style=" stroke:none;fill-rule:nonzero;fill:rgb(24.708557%,23.919678%,33.729553%);fill-opacity:1;" d="M 204.015625 145.523438 L 305.039062 145.523438 L 305.039062 145.800781 L 204.015625 145.800781 Z M 204.015625 145.523438 "/>
</g>
<g clip-path="url(#clip4)" clip-rule="nonzero">
<path style=" stroke:none;fill-rule:nonzero;fill:rgb(24.708557%,23.919678%,33.729553%);fill-opacity:1;" d="M 174.589844 158.253906 L 209.734375 158.253906 L 209.734375 158.53125 L 174.589844 158.53125 Z M 174.589844 158.253906 "/>
</g>
<path style=" stroke:none;fill-rule:nonzero;fill:rgb(32.548523%,42.749023%,99.609375%);fill-opacity:1;" d="M 212.949219 144.0625 L 216.808594 144.0625 L 216.808594 147.9375 L 212.949219 147.9375 Z M 212.949219 144.0625 "/>
<path style=" stroke:none;fill-rule:nonzero;fill:rgb(24.708557%,23.919678%,33.729553%);fill-opacity:1;" d="M 219.152344 145.722656 L 214.464844 145.722656 L 214.464844 141.019531 L 219.152344 141.019531 Z M 214.667969 145.519531 L 218.949219 145.519531 L 218.949219 141.222656 L 214.667969 141.222656 Z M 214.667969 145.519531 "/>
<path style=" stroke:none;fill-rule:nonzero;fill:rgb(32.548523%,42.749023%,99.609375%);fill-opacity:1;" d="M 257.742188 71 L 261.601562 71 L 261.601562 74.875 L 257.742188 74.875 Z M 257.742188 71 "/>
<g clip-path="url(#clip5)" clip-rule="nonzero">
<path style=" stroke:none;fill-rule:nonzero;fill:rgb(24.708557%,23.919678%,33.729553%);fill-opacity:1;" d="M 263.945312 72.660156 L 259.257812 72.660156 L 259.257812 67.957031 L 263.945312 67.957031 Z M 259.460938 72.457031 L 263.742188 72.457031 L 263.742188 68.160156 L 259.460938 68.160156 Z M 259.460938 72.457031 "/>
</g>
<path style=" stroke:none;fill-rule:nonzero;fill:rgb(32.548523%,42.749023%,99.609375%);fill-opacity:1;" d="M 296.609375 144.0625 L 300.46875 144.0625 L 300.46875 147.9375 L 296.609375 147.9375 Z M 296.609375 144.0625 "/>
<path style=" stroke:none;fill-rule:nonzero;fill:rgb(24.708557%,23.919678%,33.729553%);fill-opacity:1;" d="M 302.8125 145.722656 L 298.125 145.722656 L 298.125 141.019531 L 302.8125 141.019531 Z M 298.328125 145.519531 L 302.609375 145.519531 L 302.609375 141.222656 L 298.328125 141.222656 Z M 298.328125 145.519531 "/>
<path style=" stroke:none;fill-rule:nonzero;fill:rgb(24.708557%,23.919678%,33.729553%);fill-opacity:1;" d="M 293.738281 100.054688 L 293.410156 100.054688 L 293.410156 91.035156 C 293.410156 90.695312 293.378906 90.355469 293.3125 90.019531 C 293.246094 89.683594 293.144531 89.355469 293.015625 89.039062 C 292.882812 88.722656 292.722656 88.421875 292.535156 88.136719 C 292.34375 87.851562 292.128906 87.589844 291.886719 87.347656 C 291.648438 87.105469 291.382812 86.886719 291.101562 86.695312 C 290.816406 86.507812 290.515625 86.347656 290.203125 86.214844 C 289.886719 86.082031 289.5625 85.984375 289.226562 85.917969 C 288.890625 85.851562 288.554688 85.816406 288.210938 85.816406 L 269.183594 85.816406 C 268.84375 85.816406 268.507812 85.851562 268.171875 85.917969 C 267.835938 85.984375 267.511719 86.082031 267.195312 86.214844 C 266.882812 86.347656 266.582031 86.507812 266.296875 86.695312 C 266.015625 86.886719 265.75 87.105469 265.511719 87.347656 C 265.269531 87.589844 265.054688 87.851562 264.863281 88.136719 C 264.675781 88.421875 264.515625 88.722656 264.382812 89.039062 C 264.253906 89.355469 264.152344 89.683594 264.085938 90.019531 C 264.019531 90.355469 263.988281 90.695312 263.988281 91.035156 L 263.988281 140.503906 C 263.988281 140.847656 264.019531 141.1875 264.085938 141.523438 C 264.152344 141.859375 264.253906 142.183594 264.382812 142.5 C 264.515625 142.816406 264.675781 143.117188 264.863281 143.402344 C 265.054688 143.6875 265.269531 143.953125 265.511719 144.195312 C 265.75 144.4375 266.015625 144.652344 266.296875 144.84375 C 266.582031 145.035156 266.882812 145.195312 267.195312 145.324219 C 267.511719 145.457031 267.835938 145.554688 268.171875 145.621094 C 268.507812 145.6875 268.84375 145.722656 269.183594 145.722656 L 288.210938 145.722656 C 288.554688 145.722656 288.890625 145.6875 289.226562 145.621094 C 289.5625 145.554688 289.886719 145.457031 290.203125 145.324219 C 290.515625 145.195312 290.816406 145.035156 291.101562 144.84375 C 291.382812 144.652344 291.648438 144.4375 291.886719 144.195312 C 292.128906 143.953125 292.34375 143.6875 292.535156 143.402344 C 292.722656 143.117188 292.882812 142.816406 293.015625 142.5 C 293.144531 142.183594 293.246094 141.859375 293.3125 141.523438 C 293.378906 141.1875 293.410156 140.847656 293.410156 140.503906 L 293.410156 106.472656 L 293.738281 106.472656 Z M 293.738281 100.054688 "/>
<path style=" stroke:none;fill-rule:nonzero;fill:rgb(32.548523%,42.749023%,99.609375%);fill-opacity:1;" d="M 292.304688 91.34375 L 292.304688 140.738281 C 292.304688 141.253906 292.207031 141.753906 292.007812 142.230469 C 291.8125 142.707031 291.53125 143.128906 291.167969 143.496094 C 290.804688 143.859375 290.382812 144.140625 289.90625 144.339844 C 289.433594 144.539062 288.9375 144.636719 288.421875 144.636719 L 269.304688 144.636719 C 268.789062 144.636719 268.292969 144.539062 267.816406 144.339844 C 267.34375 144.140625 266.921875 143.859375 266.558594 143.496094 C 266.195312 143.128906 265.914062 142.707031 265.71875 142.230469 C 265.519531 141.753906 265.421875 141.253906 265.421875 140.738281 L 265.421875 91.34375 C 265.421875 90.828125 265.519531 90.328125 265.71875 89.851562 C 265.914062 89.375 266.195312 88.953125 266.558594 88.585938 C 266.921875 88.222656 267.34375 87.941406 267.820312 87.742188 C 268.292969 87.546875 268.789062 87.445312 269.304688 87.445312 L 271.625 87.445312 C 271.566406 87.585938 271.527344 87.730469 271.503906 87.882812 C 271.484375 88.03125 271.480469 88.183594 271.496094 88.335938 C 271.511719 88.484375 271.546875 88.632812 271.597656 88.773438 C 271.648438 88.917969 271.714844 89.050781 271.800781 89.179688 C 271.882812 89.304688 271.984375 89.417969 272.09375 89.519531 C 272.207031 89.621094 272.332031 89.707031 272.464844 89.777344 C 272.597656 89.851562 272.738281 89.90625 272.882812 89.941406 C 273.03125 89.976562 273.179688 89.996094 273.332031 89.996094 L 284.230469 89.996094 C 284.382812 89.996094 284.53125 89.976562 284.679688 89.941406 C 284.824219 89.90625 284.964844 89.851562 285.097656 89.777344 C 285.230469 89.707031 285.355469 89.621094 285.46875 89.519531 C 285.578125 89.417969 285.675781 89.304688 285.761719 89.179688 C 285.847656 89.050781 285.914062 88.917969 285.964844 88.773438 C 286.015625 88.632812 286.050781 88.484375 286.066406 88.335938 C 286.082031 88.183594 286.078125 88.03125 286.058594 87.882812 C 286.035156 87.730469 285.996094 87.585938 285.9375 87.445312 L 288.421875 87.445312 C 288.9375 87.445312 289.433594 87.546875 289.90625 87.742188 C 290.382812 87.941406 290.804688 88.222656 291.167969 88.585938 C 291.53125 88.953125 291.8125 89.375 292.007812 89.851562 C 292.207031 90.328125 292.304688 90.828125 292.304688 91.34375 Z M 292.304688 91.34375 "/>
<path style=" stroke:none;fill-rule:nonzero;fill:rgb(24.708557%,23.919678%,33.729553%);fill-opacity:1;" d="M 276.015625 120.015625 L 281.710938 120.015625 L 281.710938 121.710938 L 276.015625 121.710938 Z M 276.015625 120.015625 "/>
<path style=" stroke:none;fill-rule:nonzero;fill:rgb(24.708557%,23.919678%,33.729553%);fill-opacity:1;" d="M 269.128906 106.820312 L 288.597656 106.820312 L 288.597656 107.546875 L 269.128906 107.546875 Z M 269.128906 106.820312 "/>
<path style=" stroke:none;fill-rule:nonzero;fill:rgb(24.708557%,23.919678%,33.729553%);fill-opacity:1;" d="M 269.128906 109.121094 L 288.597656 109.121094 L 288.597656 109.847656 L 269.128906 109.847656 Z M 269.128906 109.121094 "/>
<path style=" stroke:none;fill-rule:nonzero;fill:rgb(24.708557%,23.919678%,33.729553%);fill-opacity:1;" d="M 269.128906 111.421875 L 288.597656 111.421875 L 288.597656 112.148438 L 269.128906 112.148438 Z M 269.128906 111.421875 "/>
<path style=" stroke:none;fill-rule:nonzero;fill:rgb(24.708557%,23.919678%,33.729553%);fill-opacity:1;" d="M 269.128906 113.722656 L 288.597656 113.722656 L 288.597656 114.449219 L 269.128906 114.449219 Z M 269.128906 113.722656 "/>
<path style=" stroke:none;fill-rule:nonzero;fill:rgb(24.708557%,23.919678%,33.729553%);fill-opacity:1;" d="M 269.128906 116.019531 L 288.597656 116.019531 L 288.597656 116.746094 L 269.128906 116.746094 Z M 269.128906 116.019531 "/>
<path style=" stroke:none;fill-rule:nonzero;fill:rgb(94.898987%,94.898987%,94.898987%);fill-opacity:1;" d="M 276.167969 97.179688 L 279.542969 97.179688 L 279.542969 100.566406 L 276.167969 100.566406 Z M 276.167969 97.179688 "/>
<path style=" stroke:none;fill-rule:nonzero;fill:rgb(24.708557%,23.919678%,33.729553%);fill-opacity:1;" d="M 277.460938 98.023438 L 277.460938 102.140625 L 281.558594 102.140625 L 281.558594 98.023438 Z M 281.378906 101.960938 L 277.636719 101.960938 L 277.636719 98.203125 L 281.378906 98.203125 Z M 281.378906 101.960938 "/>
<path style=" stroke:none;fill-rule:nonzero;fill:rgb(0%,0%,0%);fill-opacity:0.098;" d="M 292.304688 135.464844 L 292.304688 140.738281 C 292.304688 141.253906 292.207031 141.753906 292.007812 142.230469 C 291.8125 142.707031 291.53125 143.128906 291.167969 143.496094 C 290.804688 143.859375 290.382812 144.140625 289.90625 144.339844 C 289.433594 144.539062 288.9375 144.636719 288.421875 144.636719 L 269.304688 144.636719 C 268.789062 144.636719 268.292969 144.539062 267.816406 144.339844 C 267.34375 144.140625 266.921875 143.859375 266.558594 143.496094 C 266.195312 143.128906 265.914062 142.707031 265.71875 142.230469 C 265.519531 141.753906 265.421875 141.253906 265.421875 140.738281 L 265.421875 114.140625 L 281.53125 126.917969 L 281.804688 127.136719 L 284.800781 129.511719 L 285.082031 129.734375 Z M 292.304688 135.464844 "/>
<path style=" stroke:none;fill-rule:nonzero;fill:rgb(94.898987%,94.898987%,94.898987%);fill-opacity:1;" d="M 283.253906 136.964844 C 283.253906 137.363281 283.214844 137.757812 283.140625 138.148438 C 283.0625 138.539062 282.945312 138.921875 282.796875 139.289062 C 282.644531 139.65625 282.457031 140.007812 282.234375 140.335938 C 282.015625 140.667969 281.765625 140.976562 281.484375 141.257812 C 281.203125 141.539062 280.898438 141.792969 280.566406 142.011719 C 280.238281 142.234375 279.890625 142.421875 279.523438 142.574219 C 279.15625 142.726562 278.777344 142.839844 278.390625 142.917969 C 278 142.996094 277.605469 143.035156 277.210938 143.035156 C 276.8125 143.035156 276.417969 142.996094 276.03125 142.917969 C 275.640625 142.839844 275.261719 142.726562 274.894531 142.574219 C 274.527344 142.421875 274.179688 142.234375 273.851562 142.011719 C 273.519531 141.792969 273.214844 141.539062 272.933594 141.257812 C 272.652344 140.976562 272.402344 140.667969 272.183594 140.339844 C 271.960938 140.007812 271.773438 139.65625 271.625 139.289062 C 271.472656 138.921875 271.355469 138.539062 271.277344 138.148438 C 271.203125 137.757812 271.164062 137.363281 271.164062 136.964844 C 271.164062 136.566406 271.203125 136.171875 271.277344 135.78125 C 271.355469 135.390625 271.472656 135.011719 271.625 134.640625 C 271.773438 134.273438 271.960938 133.925781 272.183594 133.59375 C 272.402344 133.261719 272.652344 132.953125 272.933594 132.671875 C 273.214844 132.390625 273.519531 132.140625 273.851562 131.917969 C 274.179688 131.695312 274.527344 131.507812 274.894531 131.355469 C 275.261719 131.203125 275.640625 131.089844 276.03125 131.011719 C 276.417969 130.933594 276.8125 130.894531 277.210938 130.894531 C 277.605469 130.894531 278 130.933594 278.390625 131.011719 C 278.777344 131.089844 279.15625 131.203125 279.523438 131.355469 C 279.890625 131.507812 280.238281 131.695312 280.566406 131.917969 C 280.898438 132.140625 281.203125 132.390625 281.484375 132.671875 C 281.765625 132.953125 282.015625 133.261719 282.234375 133.59375 C 282.457031 133.925781 282.644531 134.273438 282.796875 134.640625 C 282.945312 135.011719 283.0625 135.390625 283.140625 135.78125 C 283.214844 136.171875 283.253906 136.566406 283.253906 136.964844 Z M 283.253906 136.964844 "/>
<g clip-path="url(#clip6)" clip-rule="nonzero">
<path style=" stroke:none;fill-rule:nonzero;fill:rgb(24.708557%,23.919678%,33.729553%);fill-opacity:1;" d="M 192.160156 158.53125 C 191.375 158.53125 190.59375 158.453125 189.824219 158.296875 C 189.050781 158.144531 188.300781 157.914062 187.574219 157.613281 C 186.84375 157.3125 186.15625 156.941406 185.5 156.5 C 184.84375 156.0625 184.238281 155.5625 183.683594 155.003906 C 183.125 154.445312 182.628906 153.835938 182.191406 153.179688 C 181.753906 152.523438 181.386719 151.828125 181.082031 151.097656 C 180.78125 150.367188 180.554688 149.613281 180.402344 148.839844 C 180.246094 148.0625 180.171875 147.28125 180.171875 146.492188 C 180.171875 145.699219 180.246094 144.917969 180.402344 144.140625 C 180.554688 143.367188 180.78125 142.613281 181.082031 141.882812 C 181.386719 141.152344 181.753906 140.460938 182.191406 139.800781 C 182.628906 139.144531 183.125 138.535156 183.683594 137.976562 C 184.238281 137.417969 184.84375 136.921875 185.5 136.480469 C 186.15625 136.042969 186.84375 135.671875 187.574219 135.367188 C 188.300781 135.066406 189.050781 134.835938 189.824219 134.683594 C 190.59375 134.527344 191.375 134.453125 192.160156 134.453125 C 192.949219 134.453125 193.730469 134.527344 194.5 134.683594 C 195.273438 134.835938 196.023438 135.066406 196.75 135.367188 C 197.476562 135.671875 198.167969 136.042969 198.824219 136.480469 C 199.476562 136.921875 200.082031 137.417969 200.640625 137.976562 C 201.195312 138.535156 201.695312 139.144531 202.132812 139.800781 C 202.570312 140.460938 202.9375 141.152344 203.238281 141.882812 C 203.539062 142.613281 203.769531 143.367188 203.921875 144.140625 C 204.074219 144.917969 204.152344 145.699219 204.152344 146.492188 C 204.152344 147.28125 204.074219 148.0625 203.917969 148.839844 C 203.765625 149.613281 203.539062 150.367188 203.234375 151.097656 C 202.933594 151.824219 202.566406 152.519531 202.128906 153.175781 C 201.691406 153.832031 201.191406 154.441406 200.636719 155 C 200.078125 155.558594 199.472656 156.058594 198.820312 156.496094 C 198.164062 156.9375 197.476562 157.308594 196.75 157.609375 C 196.019531 157.914062 195.273438 158.140625 194.5 158.296875 C 193.726562 158.449219 192.949219 158.527344 192.160156 158.53125 Z M 192.160156 134.730469 C 191.390625 134.730469 190.628906 134.804688 189.875 134.953125 C 189.121094 135.105469 188.390625 135.328125 187.679688 135.625 C 186.96875 135.917969 186.292969 136.28125 185.652344 136.710938 C 185.011719 137.140625 184.421875 137.628906 183.878906 138.171875 C 183.332031 138.71875 182.847656 139.3125 182.421875 139.957031 C 181.992188 140.597656 181.632812 141.277344 181.339844 141.988281 C 181.042969 142.703125 180.820312 143.4375 180.671875 144.195312 C 180.523438 144.953125 180.445312 145.71875 180.445312 146.492188 C 180.445312 147.261719 180.523438 148.027344 180.671875 148.785156 C 180.820312 149.542969 181.042969 150.277344 181.339844 150.992188 C 181.632812 151.707031 181.992188 152.382812 182.421875 153.027344 C 182.847656 153.667969 183.332031 154.261719 183.878906 154.808594 C 184.421875 155.355469 185.011719 155.839844 185.652344 156.269531 C 186.292969 156.699219 186.96875 157.0625 187.679688 157.359375 C 188.390625 157.652344 189.121094 157.875 189.875 158.027344 C 190.628906 158.175781 191.390625 158.253906 192.160156 158.253906 C 192.929688 158.253906 193.691406 158.175781 194.445312 158.027344 C 195.203125 157.875 195.933594 157.652344 196.644531 157.359375 C 197.355469 157.0625 198.03125 156.699219 198.671875 156.269531 C 199.308594 155.839844 199.902344 155.355469 200.445312 154.808594 C 200.988281 154.261719 201.476562 153.667969 201.902344 153.027344 C 202.328125 152.382812 202.691406 151.707031 202.984375 150.992188 C 203.28125 150.277344 203.5 149.542969 203.652344 148.785156 C 203.800781 148.027344 203.875 147.261719 203.875 146.492188 C 203.875 145.71875 203.800781 144.953125 203.648438 144.195312 C 203.5 143.441406 203.277344 142.703125 202.980469 141.992188 C 202.6875 141.277344 202.324219 140.601562 201.898438 139.960938 C 201.472656 139.316406 200.984375 138.722656 200.441406 138.175781 C 199.898438 137.632812 199.304688 137.144531 198.667969 136.714844 C 198.027344 136.285156 197.351562 135.921875 196.644531 135.628906 C 195.933594 135.332031 195.199219 135.109375 194.445312 134.957031 C 193.691406 134.804688 192.929688 134.730469 192.160156 134.730469 Z M 192.160156 134.730469 "/>
</g>
<path style=" stroke:none;fill-rule:nonzero;fill:rgb(24.708557%,23.919678%,33.729553%);fill-opacity:1;" d="M 278.992188 141.648438 C 278.492188 141.648438 278 141.597656 277.511719 141.5 C 277.023438 141.402344 276.550781 141.257812 276.089844 141.066406 C 275.628906 140.878906 275.195312 140.644531 274.78125 140.363281 C 274.367188 140.085938 273.984375 139.773438 273.632812 139.417969 C 273.277344 139.066406 272.964844 138.679688 272.6875 138.265625 C 272.410156 137.851562 272.179688 137.410156 271.988281 136.949219 C 271.796875 136.488281 271.652344 136.011719 271.554688 135.523438 C 271.460938 135.03125 271.410156 134.535156 271.410156 134.035156 C 271.410156 133.535156 271.460938 133.042969 271.554688 132.550781 C 271.652344 132.0625 271.796875 131.585938 271.988281 131.125 C 272.179688 130.664062 272.410156 130.222656 272.6875 129.808594 C 272.964844 129.394531 273.277344 129.007812 273.632812 128.65625 C 273.984375 128.300781 274.367188 127.984375 274.78125 127.707031 C 275.195312 127.429688 275.628906 127.195312 276.089844 127.003906 C 276.550781 126.8125 277.023438 126.667969 277.511719 126.570312 C 278 126.476562 278.492188 126.425781 278.992188 126.425781 C 279.488281 126.425781 279.980469 126.476562 280.46875 126.570312 C 280.957031 126.667969 281.433594 126.8125 281.890625 127.003906 C 282.351562 127.195312 282.789062 127.429688 283.203125 127.707031 C 283.617188 127.984375 284 128.300781 284.351562 128.65625 C 284.703125 129.007812 285.015625 129.394531 285.292969 129.808594 C 285.570312 130.222656 285.804688 130.664062 285.996094 131.125 C 286.183594 131.585938 286.328125 132.0625 286.425781 132.550781 C 286.523438 133.042969 286.570312 133.535156 286.570312 134.035156 C 286.570312 134.535156 286.523438 135.03125 286.425781 135.519531 C 286.328125 136.011719 286.183594 136.488281 285.992188 136.949219 C 285.800781 137.410156 285.566406 137.847656 285.292969 138.261719 C 285.015625 138.679688 284.699219 139.0625 284.347656 139.414062 C 283.996094 139.769531 283.613281 140.085938 283.199219 140.363281 C 282.785156 140.640625 282.351562 140.875 281.890625 141.066406 C 281.429688 141.257812 280.957031 141.402344 280.46875 141.5 C 279.980469 141.597656 279.488281 141.648438 278.992188 141.648438 Z M 278.992188 126.703125 C 278.511719 126.703125 278.035156 126.75 277.566406 126.84375 C 277.097656 126.9375 276.640625 127.078125 276.195312 127.261719 C 275.753906 127.445312 275.332031 127.671875 274.933594 127.9375 C 274.535156 128.207031 274.164062 128.511719 273.824219 128.851562 C 273.488281 129.191406 273.183594 129.5625 272.917969 129.960938 C 272.652344 130.363281 272.425781 130.785156 272.242188 131.230469 C 272.058594 131.675781 271.921875 132.132812 271.828125 132.605469 C 271.734375 133.078125 271.6875 133.554688 271.6875 134.035156 C 271.6875 134.519531 271.734375 134.996094 271.828125 135.46875 C 271.921875 135.941406 272.058594 136.398438 272.242188 136.84375 C 272.425781 137.289062 272.652344 137.710938 272.917969 138.113281 C 273.183594 138.511719 273.488281 138.882812 273.824219 139.222656 C 274.164062 139.5625 274.535156 139.867188 274.933594 140.136719 C 275.332031 140.402344 275.753906 140.628906 276.195312 140.8125 C 276.640625 140.996094 277.097656 141.136719 277.566406 141.230469 C 278.035156 141.324219 278.511719 141.371094 278.992188 141.371094 C 279.472656 141.371094 279.945312 141.324219 280.417969 141.230469 C 280.886719 141.136719 281.34375 140.996094 281.785156 140.8125 C 282.230469 140.628906 282.652344 140.402344 283.050781 140.136719 C 283.449219 139.867188 283.816406 139.5625 284.15625 139.222656 C 284.496094 138.882812 284.796875 138.511719 285.066406 138.113281 C 285.332031 137.710938 285.554688 137.289062 285.738281 136.84375 C 285.921875 136.398438 286.0625 135.941406 286.15625 135.46875 C 286.25 134.996094 286.296875 134.519531 286.296875 134.035156 C 286.296875 133.554688 286.25 133.078125 286.152344 132.605469 C 286.058594 132.132812 285.921875 131.675781 285.738281 131.230469 C 285.554688 130.785156 285.328125 130.363281 285.0625 129.964844 C 284.796875 129.5625 284.492188 129.195312 284.152344 128.851562 C 283.816406 128.511719 283.445312 128.207031 283.046875 127.941406 C 282.648438 127.671875 282.226562 127.449219 281.785156 127.261719 C 281.34375 127.078125 280.886719 126.9375 280.414062 126.84375 C 279.945312 126.75 279.46875 126.703125 278.992188 126.703125 Z M 278.992188 126.703125 "/>
<g clip-path="url(#clip7)" clip-rule="nonzero">
<g clip-path="url(#clip8)" clip-rule="nonzero">
<path style=" stroke:none;fill-rule:nonzero;fill:rgb(92.89856%,10.998535%,14.099121%);fill-opacity:1;" d="M 154.523438 60.15625 L 141.113281 60.15625 L 141.113281 73.632812 L 154.523438 73.632812 Z M 154.523438 60.15625 "/>
</g>
</g>
<g clip-path="url(#clip9)" clip-rule="nonzero">
<g clip-path="url(#clip10)" clip-rule="nonzero">
<path style=" stroke:none;fill-rule:nonzero;fill:rgb(23.498535%,72.898865%,32.899475%);fill-opacity:1;" d="M 297 117.402344 L 297 125.597656 L 305.234375 125.597656 L 305.234375 117.402344 Z M 297 117.402344 "/>
</g>
</g>
<g clip-path="url(#clip11)" clip-rule="nonzero">
<g clip-path="url(#clip12)" clip-rule="nonzero">
<path style=" stroke:none;fill-rule:nonzero;fill:rgb(100%,87.098694%,8.999634%);fill-opacity:1;" d="M 243.066406 154.769531 L 243.066406 162.253906 L 250.554688 162.253906 L 250.554688 154.769531 Z M 243.066406 154.769531 "/>
</g>
</g>
<g clip-path="url(#clip13)" clip-rule="nonzero">
<g clip-path="url(#clip14)" clip-rule="nonzero">
<path style=" stroke:none;fill-rule:nonzero;fill:rgb(28.199768%,52.198792%,92.89856%);fill-opacity:1;" d="M 238.828125 57.769531 L 238.828125 61.511719 L 242.570312 61.511719 L 242.570312 57.769531 Z M 238.828125 57.769531 "/>
</g>
</g>
<g clip-path="url(#clip15)" clip-rule="nonzero">
<g clip-path="url(#clip16)" clip-rule="nonzero">
<path style=" stroke:none;fill-rule:nonzero;fill:rgb(23.498535%,72.898865%,32.899475%);fill-opacity:1;" d="M 148.035156 134.9375 L 148.035156 144.671875 L 157.769531 144.671875 L 157.769531 134.9375 Z M 148.035156 134.9375 "/>
</g>
</g>
</g>
</svg>
