<?xml version="1.0" encoding="UTF-8"?>
<svg xmlns="http://www.w3.org/2000/svg" xmlns:xlink="http://www.w3.org/1999/xlink" width="150pt" height="149.999998pt" viewBox="0 0 150 149.999998" version="1.2">
<g id="surface1">
<path style=" stroke:none;fill-rule:nonzero;fill:rgb(91.758728%,26.269531%,20.779419%);fill-opacity:1;" d="M 65.96875 49.1875 C 65.710938 47.929688 65.25 46.601562 64.566406 45.429688 C 63.882812 44.261719 63.027344 43.25 62.070312 42.417969 C 62.042969 42.402344 62.03125 42.378906 62.007812 42.363281 C 58.316406 39.292969 52.898438 38.601562 48.429688 41.132812 L 13.554688 61.46875 L 25.484375 81.933594 L 60.335938 61.617188 C 64.789062 58.945312 66.882812 53.9375 65.96875 49.1875 Z M 65.96875 49.1875 "/>
<path style=" stroke:none;fill-rule:nonzero;fill:rgb(91.758728%,26.269531%,20.779419%);fill-opacity:1;" d="M 4.492188 75.480469 C 4.738281 76.738281 5.191406 78.070312 5.863281 79.246094 C 6.539062 80.425781 7.386719 81.441406 8.339844 82.28125 C 8.363281 82.296875 8.375 82.316406 8.398438 82.332031 C 12.066406 85.433594 17.480469 86.164062 21.96875 83.667969 L 57 63.601562 L 45.222656 43.042969 L 10.21875 63.09375 C 5.746094 65.730469 3.613281 70.726562 4.492188 75.480469 Z M 4.492188 75.480469 "/>
<path style=" stroke:none;fill-rule:nonzero;fill:rgb(26.669312%,52.159119%,95.689392%);fill-opacity:1;" d="M 60.601562 104.996094 C 61.554688 104.140625 62.46875 103.074219 63.136719 101.894531 C 63.804688 100.714844 64.242188 99.464844 64.480469 98.214844 C 64.480469 98.1875 64.492188 98.164062 64.492188 98.136719 C 65.289062 93.402344 63.152344 88.375 58.714844 85.792969 L 23.570312 65.917969 L 11.910156 86.542969 L 47.027344 106.398438 C 51.574219 108.898438 56.957031 108.183594 60.601562 104.996094 Z M 60.601562 104.996094 "/>
<path style=" stroke:none;fill-rule:nonzero;fill:rgb(26.669312%,52.159119%,95.689392%);fill-opacity:1;" d="M 6.898438 65.15625 C 5.9375 66.003906 5.015625 67.066406 4.339844 68.242188 C 3.664062 69.414062 3.210938 70.660156 2.96875 71.90625 C 2.964844 71.9375 2.953125 71.957031 2.953125 71.988281 C 2.121094 76.714844 4.21875 81.757812 8.636719 84.375 L 43.628906 104.515625 L 55.445312 83.984375 L 20.484375 63.859375 C 15.953125 61.324219 10.5625 62 6.898438 65.15625 Z M 6.898438 65.15625 "/>
<path style=" stroke:none;fill-rule:nonzero;fill:rgb(98.429871%,73.728943%,3.919983%);fill-opacity:1;" d="M 84.246094 99.488281 C 84.503906 100.746094 84.96875 102.074219 85.648438 103.242188 C 86.332031 104.414062 87.1875 105.425781 88.148438 106.257812 C 88.171875 106.273438 88.183594 106.292969 88.207031 106.308594 C 91.898438 109.382812 97.316406 110.070312 101.785156 107.542969 L 136.664062 87.207031 L 124.730469 66.738281 L 89.878906 87.058594 C 85.425781 89.730469 83.332031 94.738281 84.246094 99.488281 Z M 84.246094 99.488281 "/>
<path style=" stroke:none;fill-rule:nonzero;fill:rgb(98.429871%,73.728943%,3.919983%);fill-opacity:1;" d="M 145.726562 73.191406 C 145.480469 71.933594 145.027344 70.601562 144.351562 69.425781 C 143.679688 68.25 142.832031 67.234375 141.878906 66.394531 C 141.851562 66.378906 141.839844 66.355469 141.816406 66.339844 C 138.148438 63.242188 132.738281 62.511719 128.25 65.007812 L 93.21875 85.074219 L 104.992188 105.632812 L 140 85.578125 C 144.472656 82.941406 146.605469 77.949219 145.726562 73.191406 Z M 145.726562 73.191406 "/>
<path style=" stroke:none;fill-rule:nonzero;fill:rgb(5.879211%,61.569214%,34.509277%);fill-opacity:1;" d="M 89.617188 43.675781 C 88.660156 44.53125 87.746094 45.601562 87.082031 46.78125 C 86.414062 47.960938 85.972656 49.210938 85.738281 50.457031 C 85.738281 50.488281 85.722656 50.507812 85.722656 50.539062 C 84.929688 55.273438 87.066406 60.300781 91.503906 62.882812 L 126.648438 82.753906 L 138.308594 62.132812 L 103.191406 42.277344 C 98.640625 39.777344 93.257812 40.492188 89.617188 43.675781 Z M 89.617188 43.675781 "/>
<path style=" stroke:none;fill-rule:nonzero;fill:rgb(5.879211%,61.569214%,34.509277%);fill-opacity:1;" d="M 143.320312 83.519531 C 144.28125 82.671875 145.203125 81.609375 145.878906 80.433594 C 146.554688 79.257812 147.003906 78.015625 147.25 76.769531 C 147.25 76.738281 147.261719 76.71875 147.265625 76.6875 C 148.09375 71.957031 145.996094 66.914062 141.578125 64.300781 L 106.589844 44.160156 L 94.769531 64.691406 L 129.734375 84.816406 C 134.265625 87.351562 139.652344 86.675781 143.320312 83.519531 Z M 143.320312 83.519531 "/>
</g>
</svg>
