<?xml version="1.0" encoding="UTF-8"?>
<svg xmlns="http://www.w3.org/2000/svg" xmlns:xlink="http://www.w3.org/1999/xlink" width="1440pt" height="675.000002pt" viewBox="0 0 1440 675.000002" version="1.2">
<defs>
<clipPath id="clip1">
  <path d="M 1.066406 0 L 1438.933594 0 L 1438.933594 674 L 1.066406 674 Z M 1.066406 0 "/>
</clipPath>
<filter id="alpha" filterUnits="objectBoundingBox" x="0%" y="0%" width="100%" height="100%">
  <feColorMatrix type="matrix" in="SourceGraphic" values="0 0 0 0 1 0 0 0 0 1 0 0 0 0 1 0 0 0 1 0"/>
</filter>
<mask id="mask0">
  <g filter="url(#alpha)">
<rect x="0" y="0" width="1440" height="675.000002" style="fill:rgb(0%,0%,0%);fill-opacity:0.7294;stroke:none;"/>
  </g>
</mask>
<clipPath id="clip3">
  <path d="M 1 0.210938 L 57.472656 0.210938 L 57.472656 56.527344 L 1 56.527344 Z M 1 0.210938 "/>
</clipPath>
<clipPath id="clip2">
  <rect x="0" y="0" width="58" height="57"/>
</clipPath>
<g id="surface5" clip-path="url(#clip2)">
<g clip-path="url(#clip3)" clip-rule="nonzero">
<path style=" stroke:none;fill-rule:nonzero;fill:rgb(85.879517%,19.60907%,21.179199%);fill-opacity:1;" d="M 57.089844 28.539062 C 57.089844 43.945312 44.515625 56.523438 29.0625 56.523438 C 13.652344 56.523438 1.074219 43.945312 1.074219 28.539062 C 1.074219 13.085938 13.652344 0.550781 29.0625 0.550781 C 44.515625 0.507812 57.089844 13.085938 57.089844 28.539062 Z M 16.484375 28.539062 C 16.484375 35.449219 22.148438 41.113281 29.0625 41.113281 C 35.976562 41.113281 41.640625 35.449219 41.640625 28.539062 C 41.640625 21.625 35.976562 15.960938 29.0625 15.960938 C 22.148438 15.960938 16.484375 21.582031 16.484375 28.539062 Z M 16.484375 28.539062 "/>
</g>
</g>
<mask id="mask1">
  <g filter="url(#alpha)">
<rect x="0" y="0" width="1440" height="675.000002" style="fill:rgb(0%,0%,0%);fill-opacity:0.6078;stroke:none;"/>
  </g>
</mask>
<clipPath id="clip5">
  <path d="M 0.160156 1 L 33.710938 1 L 33.710938 34.46875 L 0.160156 34.46875 Z M 0.160156 1 "/>
</clipPath>
<clipPath id="clip4">
  <rect x="0" y="0" width="34" height="35"/>
</clipPath>
<g id="surface8" clip-path="url(#clip4)">
<g clip-path="url(#clip5)" clip-rule="nonzero">
<path style=" stroke:none;fill-rule:nonzero;fill:rgb(23.529053%,72.938538%,32.939148%);fill-opacity:1;" d="M 0.707031 4.652344 L 3.863281 1.492188 C 4.503906 0.851562 5.546875 0.851562 6.191406 1.492188 L 16.609375 11.914062 C 16.777344 12.082031 17.046875 12.082031 17.214844 11.914062 L 27.636719 1.492188 C 28.277344 0.851562 29.320312 0.851562 29.960938 1.492188 L 33.121094 4.652344 C 33.761719 5.292969 33.761719 6.335938 33.121094 6.976562 L 22.699219 17.398438 C 22.53125 17.566406 22.53125 17.835938 22.699219 18.003906 L 33.121094 28.421875 C 33.761719 29.066406 33.761719 30.109375 33.121094 30.75 L 29.960938 33.90625 C 29.320312 34.550781 28.277344 34.550781 27.636719 33.90625 L 17.214844 23.488281 C 17.046875 23.320312 16.777344 23.320312 16.609375 23.488281 L 6.191406 33.90625 C 5.546875 34.550781 4.503906 34.550781 3.863281 33.90625 L 0.707031 30.75 C 0.0625 30.109375 0.0625 29.066406 0.707031 28.421875 L 11.125 18.003906 C 11.292969 17.835938 11.292969 17.566406 11.125 17.398438 L 0.707031 6.976562 C 0.0625 6.335938 0.0625 5.292969 0.707031 4.652344 "/>
</g>
</g>
<mask id="mask2">
  <g filter="url(#alpha)">
<rect x="0" y="0" width="1440" height="675.000002" style="fill:rgb(0%,0%,0%);fill-opacity:0.7765;stroke:none;"/>
  </g>
</mask>
<clipPath id="clip7">
  <path d="M 0.238281 0.210938 L 50 0.210938 L 50 49.816406 L 0.238281 49.816406 Z M 0.238281 0.210938 "/>
</clipPath>
<clipPath id="clip8">
  <path d="M 0.453125 11.769531 L 38.449219 0.296875 L 49.921875 38.296875 L 11.925781 49.765625 Z M 0.453125 11.769531 "/>
</clipPath>
<clipPath id="clip9">
  <path d="M 0.453125 11.769531 L 38.449219 0.296875 L 49.921875 38.296875 L 11.925781 49.765625 Z M 0.453125 11.769531 "/>
</clipPath>
<clipPath id="clip6">
  <rect x="0" y="0" width="51" height="50"/>
</clipPath>
<g id="surface11" clip-path="url(#clip6)">
<g clip-path="url(#clip7)" clip-rule="nonzero">
<g clip-path="url(#clip8)" clip-rule="nonzero">
<g clip-path="url(#clip9)" clip-rule="nonzero">
<path style=" stroke:none;fill-rule:nonzero;fill:rgb(28.239441%,52.159119%,92.939758%);fill-opacity:1;" d="M 36.386719 0.921875 L 2.519531 11.144531 C 1.378906 11.488281 0.734375 12.691406 1.078125 13.832031 L 11.300781 47.703125 C 11.644531 48.84375 12.847656 49.488281 13.988281 49.144531 L 47.855469 38.917969 C 48.996094 38.574219 49.644531 37.371094 49.296875 36.230469 L 39.074219 2.363281 C 38.730469 1.222656 37.527344 0.578125 36.386719 0.921875 Z M 44.546875 35.414062 L 14.808594 44.394531 L 5.828125 14.648438 L 35.570312 5.671875 Z M 44.546875 35.414062 "/>
</g>
</g>
</g>
</g>
<mask id="mask3">
  <g filter="url(#alpha)">
<rect x="0" y="0" width="1440" height="675.000002" style="fill:rgb(0%,0%,0%);fill-opacity:0.4784;stroke:none;"/>
  </g>
</mask>
<clipPath id="clip11">
  <path d="M 14 2 L 45 2 L 45 36 L 14 36 Z M 14 2 "/>
</clipPath>
<clipPath id="clip12">
  <path d="M 31.738281 44.402344 L 0.890625 25.945312 L 15.890625 0.882812 L 46.734375 19.339844 Z M 31.738281 44.402344 "/>
</clipPath>
<clipPath id="clip13">
  <path d="M 31.738281 44.402344 L 0.890625 25.945312 L 15.890625 0.882812 L 46.734375 19.339844 Z M 31.738281 44.402344 "/>
</clipPath>
<clipPath id="clip10">
  <rect x="0" y="0" width="48" height="45"/>
</clipPath>
<g id="surface14" clip-path="url(#clip10)">
<g clip-path="url(#clip11)" clip-rule="nonzero">
<g clip-path="url(#clip12)" clip-rule="nonzero">
<g clip-path="url(#clip13)" clip-rule="nonzero">
<path style=" stroke:none;fill-rule:nonzero;fill:rgb(23.529053%,72.938538%,32.939148%);fill-opacity:1;" d="M 18.480469 31.550781 L 18.234375 6.289062 L 40.863281 19.828125 L 18.480469 31.550781 M 16.3125 35.171875 C 17.039062 35.605469 17.984375 35.675781 18.863281 35.214844 L 43.414062 22.359375 C 45.339844 21.351562 45.515625 18.609375 43.722656 17.539062 L 18.898438 2.683594 C 17.109375 1.609375 14.777344 3.0625 14.796875 5.234375 L 15.070312 32.949219 C 15.082031 33.941406 15.589844 34.738281 16.3125 35.171875 Z M 16.3125 35.171875 "/>
</g>
</g>
</g>
</g>
<mask id="mask4">
  <g filter="url(#alpha)">
<rect x="0" y="0" width="1440" height="675.000002" style="fill:rgb(0%,0%,0%);fill-opacity:0.8275;stroke:none;"/>
  </g>
</mask>
<clipPath id="clip15">
  <path d="M 0.65625 1 L 57 1 L 57 57.4375 L 0.65625 57.4375 Z M 0.65625 1 "/>
</clipPath>
<clipPath id="clip14">
  <rect x="0" y="0" width="58" height="58"/>
</clipPath>
<g id="surface17" clip-path="url(#clip14)">
<g clip-path="url(#clip15)" clip-rule="nonzero">
<path style=" stroke:none;fill-rule:nonzero;fill:rgb(95.689392%,76.078796%,5.099487%);fill-opacity:1;" d="M 56.832031 29.351562 C 56.832031 44.761719 44.253906 57.339844 28.804688 57.339844 C 13.394531 57.339844 0.816406 44.761719 0.816406 29.351562 C 0.816406 13.898438 13.394531 1.363281 28.804688 1.363281 C 44.253906 1.324219 56.832031 13.898438 56.832031 29.351562 Z M 16.226562 29.351562 C 16.226562 36.265625 21.890625 41.929688 28.804688 41.929688 C 35.71875 41.929688 41.382812 36.265625 41.382812 29.351562 C 41.382812 22.4375 35.71875 16.773438 28.804688 16.773438 C 21.890625 16.773438 16.226562 22.394531 16.226562 29.351562 Z M 16.226562 29.351562 "/>
</g>
</g>
<mask id="mask5">
  <g filter="url(#alpha)">
<rect x="0" y="0" width="1440" height="675.000002" style="fill:rgb(0%,0%,0%);fill-opacity:0.8196;stroke:none;"/>
  </g>
</mask>
<clipPath id="clip17">
  <path d="M 0 0.171875 L 56.316406 0.171875 L 56.316406 56.726562 L 0 56.726562 Z M 0 0.171875 "/>
</clipPath>
<clipPath id="clip16">
  <rect x="0" y="0" width="57" height="57"/>
</clipPath>
<g id="surface20" clip-path="url(#clip16)">
<g clip-path="url(#clip17)" clip-rule="nonzero">
<path style=" stroke:none;fill-rule:nonzero;fill:rgb(85.879517%,19.60907%,21.179199%);fill-opacity:1;" d="M 56.105469 28.632812 C 56.105469 44.042969 43.527344 56.621094 28.074219 56.621094 C 12.664062 56.621094 0.0898438 44.042969 0.0898438 28.632812 C 0.0898438 13.183594 12.664062 0.644531 28.074219 0.644531 C 43.527344 0.605469 56.105469 13.183594 56.105469 28.632812 Z M 15.496094 28.632812 C 15.496094 35.546875 21.160156 41.210938 28.074219 41.210938 C 34.988281 41.210938 40.652344 35.546875 40.652344 28.632812 C 40.652344 21.71875 34.988281 16.054688 28.074219 16.054688 C 21.160156 16.054688 15.496094 21.679688 15.496094 28.632812 Z M 15.496094 28.632812 "/>
</g>
</g>
<mask id="mask6">
  <g filter="url(#alpha)">
<rect x="0" y="0" width="1440" height="675.000002" style="fill:rgb(0%,0%,0%);fill-opacity:0.7686;stroke:none;"/>
  </g>
</mask>
<clipPath id="clip19">
  <path d="M 2 17 L 44 17 L 44 56 L 2 56 Z M 2 17 "/>
</clipPath>
<clipPath id="clip20">
  <path d="M 32.105469 1.265625 L 54.34375 40.308594 L 23.109375 58.101562 L 0.871094 19.054688 Z M 32.105469 1.265625 "/>
</clipPath>
<clipPath id="clip21">
  <path d="M 32.105469 1.265625 L 54.34375 40.308594 L 23.109375 58.101562 L 0.871094 19.054688 Z M 32.105469 1.265625 "/>
</clipPath>
<clipPath id="clip18">
  <rect x="0" y="0" width="56" height="60"/>
</clipPath>
<g id="surface23" clip-path="url(#clip18)">
<g clip-path="url(#clip19)" clip-rule="nonzero">
<g clip-path="url(#clip20)" clip-rule="nonzero">
<g clip-path="url(#clip21)" clip-rule="nonzero">
<path style=" stroke:none;fill-rule:nonzero;fill:rgb(32.159424%,44.309998%,100%);fill-opacity:1;" d="M 38.710938 23.359375 L 23.820312 50.804688 L 7.507812 22.164062 L 38.710938 23.359375 M 43.226562 20.785156 C 42.703125 19.871094 41.726562 19.207031 40.5 19.160156 L 6.269531 17.851562 C 3.585938 17.75 1.75 20.601562 3.042969 22.867188 L 20.9375 54.289062 C 22.230469 56.554688 25.617188 56.429688 26.898438 54.070312 L 43.230469 23.960938 C 43.816406 22.882812 43.746094 21.703125 43.226562 20.785156 Z M 43.226562 20.785156 "/>
</g>
</g>
</g>
</g>
<mask id="mask7">
  <g filter="url(#alpha)">
<rect x="0" y="0" width="1440" height="675.000002" style="fill:rgb(0%,0%,0%);fill-opacity:0.7176;stroke:none;"/>
  </g>
</mask>
<clipPath id="clip23">
  <path d="M 0.753906 1 L 84 1 L 84 84.597656 L 0.753906 84.597656 Z M 0.753906 1 "/>
</clipPath>
<clipPath id="clip22">
  <rect x="0" y="0" width="85" height="85"/>
</clipPath>
<g id="surface26" clip-path="url(#clip22)">
<g clip-path="url(#clip23)" clip-rule="nonzero">
<path style=" stroke:none;fill-rule:nonzero;fill:rgb(23.529053%,72.938538%,32.939148%);fill-opacity:1;" d="M 83.878906 42.984375 C 83.878906 65.804688 65.257812 84.429688 42.375 84.429688 C 19.558594 84.429688 0.933594 65.804688 0.933594 42.984375 C 0.933594 20.105469 19.558594 1.542969 42.375 1.542969 C 65.257812 1.480469 83.878906 20.105469 83.878906 42.984375 Z M 23.753906 42.984375 C 23.753906 53.222656 32.140625 61.609375 42.375 61.609375 C 52.613281 61.609375 61 53.222656 61 42.984375 C 61 32.75 52.613281 24.359375 42.375 24.359375 C 32.140625 24.359375 23.753906 32.6875 23.753906 42.984375 Z M 23.753906 42.984375 "/>
</g>
</g>
<mask id="mask8">
  <g filter="url(#alpha)">
<rect x="0" y="0" width="1440" height="675.000002" style="fill:rgb(0%,0%,0%);fill-opacity:0.7373;stroke:none;"/>
  </g>
</mask>
<clipPath id="clip25">
  <path d="M 1.824219 0.394531 L 34.027344 0.394531 L 34.027344 52.066406 L 1.824219 52.066406 Z M 1.824219 0.394531 "/>
</clipPath>
<clipPath id="clip24">
  <rect x="0" y="0" width="36" height="53"/>
</clipPath>
<g id="surface29" clip-path="url(#clip24)">
<g clip-path="url(#clip25)" clip-rule="nonzero">
<path style=" stroke:none;fill-rule:nonzero;fill:rgb(95.689392%,76.078796%,5.099487%);fill-opacity:1;" d="M 1.828125 1.472656 L 1.828125 50.992188 C 1.828125 51.585938 2.308594 52.066406 2.902344 52.066406 L 32.953125 52.066406 C 33.546875 52.066406 34.027344 51.585938 34.027344 50.992188 L 34.027344 1.472656 C 34.027344 0.878906 33.546875 0.394531 32.953125 0.394531 L 2.902344 0.394531 C 2.308594 0.394531 1.828125 0.878906 1.828125 1.472656 Z M 31.878906 2.546875 L 31.878906 49.914062 L 3.976562 49.914062 L 3.976562 2.546875 Z M 31.878906 2.546875 "/>
</g>
</g>
<mask id="mask9">
  <g filter="url(#alpha)">
<rect x="0" y="0" width="1440" height="675.000002" style="fill:rgb(0%,0%,0%);fill-opacity:0.7882;stroke:none;"/>
  </g>
</mask>
<clipPath id="clip27">
  <path d="M 4 4 L 62 4 L 62 62 L 4 62 Z M 4 4 "/>
</clipPath>
<clipPath id="clip28">
  <path d="M 33.253906 65.964844 L 0.421875 33.132812 L 33.253906 0.300781 L 66.085938 33.132812 Z M 33.253906 65.964844 "/>
</clipPath>
<clipPath id="clip29">
  <path d="M 33.253906 65.964844 L 0.421875 33.132812 L 33.253906 0.300781 L 66.085938 33.132812 Z M 33.253906 65.964844 "/>
</clipPath>
<clipPath id="clip26">
  <rect x="0" y="0" width="66" height="66"/>
</clipPath>
<g id="surface32" clip-path="url(#clip26)">
<g clip-path="url(#clip27)" clip-rule="nonzero">
<g clip-path="url(#clip28)" clip-rule="nonzero">
<g clip-path="url(#clip29)" clip-rule="nonzero">
<path style=" stroke:none;fill-rule:nonzero;fill:rgb(95.689392%,76.078796%,5.099487%);fill-opacity:1;" d="M 30.175781 4.632812 L 36.328125 4.632812 C 37.582031 4.632812 38.597656 5.648438 38.597656 6.898438 L 38.597656 27.203125 C 38.597656 27.527344 38.859375 27.792969 39.183594 27.792969 L 59.488281 27.792969 C 60.742188 27.792969 61.757812 28.808594 61.757812 30.058594 L 61.757812 36.210938 C 61.757812 37.464844 60.742188 38.480469 59.488281 38.480469 L 39.183594 38.480469 C 38.859375 38.480469 38.597656 38.742188 38.597656 39.066406 L 38.597656 59.371094 C 38.597656 60.625 37.582031 61.636719 36.328125 61.636719 L 30.175781 61.636719 C 28.925781 61.636719 27.910156 60.625 27.910156 59.371094 L 27.910156 39.066406 C 27.910156 38.742188 27.648438 38.480469 27.320312 38.480469 L 7.015625 38.480469 C 5.765625 38.480469 4.75 37.464844 4.75 36.210938 L 4.75 30.058594 C 4.75 28.808594 5.765625 27.792969 7.015625 27.792969 L 27.320312 27.792969 C 27.648438 27.792969 27.910156 27.527344 27.910156 27.203125 L 27.910156 6.898438 C 27.910156 5.648438 28.925781 4.632812 30.175781 4.632812 "/>
</g>
</g>
</g>
</g>
<mask id="mask10">
  <g filter="url(#alpha)">
<rect x="0" y="0" width="1440" height="675.000002" style="fill:rgb(0%,0%,0%);fill-opacity:0.8196;stroke:none;"/>
  </g>
</mask>
<clipPath id="clip31">
  <path d="M 0.671875 1 L 57 1 L 57 57.449219 L 0.671875 57.449219 Z M 0.671875 1 "/>
</clipPath>
<clipPath id="clip30">
  <rect x="0" y="0" width="58" height="58"/>
</clipPath>
<g id="surface35" clip-path="url(#clip30)">
<g clip-path="url(#clip31)" clip-rule="nonzero">
<path style=" stroke:none;fill-rule:nonzero;fill:rgb(85.879517%,19.60907%,21.179199%);fill-opacity:1;" d="M 56.875 29.230469 C 56.875 44.640625 44.296875 57.21875 28.84375 57.21875 C 13.433594 57.21875 0.859375 44.640625 0.859375 29.230469 C 0.859375 13.78125 13.433594 1.246094 28.84375 1.246094 C 44.296875 1.203125 56.875 13.78125 56.875 29.230469 Z M 16.265625 29.230469 C 16.265625 36.144531 21.929688 41.808594 28.84375 41.808594 C 35.757812 41.808594 41.421875 36.144531 41.421875 29.230469 C 41.421875 22.316406 35.757812 16.652344 28.84375 16.652344 C 21.929688 16.652344 16.265625 22.277344 16.265625 29.230469 Z M 16.265625 29.230469 "/>
</g>
</g>
<mask id="mask11">
  <g filter="url(#alpha)">
<rect x="0" y="0" width="1440" height="675.000002" style="fill:rgb(0%,0%,0%);fill-opacity:0.7176;stroke:none;"/>
  </g>
</mask>
<clipPath id="clip33">
  <path d="M 0.152344 0.128906 L 83.546875 0.128906 L 83.546875 83.527344 L 0.152344 83.527344 Z M 0.152344 0.128906 "/>
</clipPath>
<clipPath id="clip32">
  <rect x="0" y="0" width="84" height="84"/>
</clipPath>
<g id="surface38" clip-path="url(#clip32)">
<g clip-path="url(#clip33)" clip-rule="nonzero">
<path style=" stroke:none;fill-rule:nonzero;fill:rgb(23.529053%,72.938538%,32.939148%);fill-opacity:1;" d="M 83.210938 42.082031 C 83.210938 64.898438 64.585938 83.523438 41.707031 83.523438 C 18.886719 83.523438 0.265625 64.898438 0.265625 42.082031 C 0.265625 19.203125 18.886719 0.640625 41.707031 0.640625 C 64.585938 0.578125 83.210938 19.203125 83.210938 42.082031 Z M 23.082031 42.082031 C 23.082031 52.320312 31.46875 60.707031 41.707031 60.707031 C 51.945312 60.707031 60.332031 52.320312 60.332031 42.082031 C 60.332031 31.84375 51.945312 23.457031 41.707031 23.457031 C 31.46875 23.457031 23.082031 31.78125 23.082031 42.082031 Z M 23.082031 42.082031 "/>
</g>
</g>
<mask id="mask12">
  <g filter="url(#alpha)">
<rect x="0" y="0" width="1440" height="675.000002" style="fill:rgb(0%,0%,0%);fill-opacity:0.7882;stroke:none;"/>
  </g>
</mask>
<clipPath id="clip35">
  <path d="M 1 2 L 55 2 L 55 56 L 1 56 Z M 1 2 "/>
</clipPath>
<clipPath id="clip36">
  <path d="M 11.425781 57.3125 L -0.171875 12.351562 L 44.789062 0.753906 L 56.386719 45.714844 Z M 11.425781 57.3125 "/>
</clipPath>
<clipPath id="clip37">
  <path d="M 11.425781 57.3125 L -0.171875 12.351562 L 44.789062 0.753906 L 56.386719 45.714844 Z M 11.425781 57.3125 "/>
</clipPath>
<clipPath id="clip34">
  <rect x="0" y="0" width="57" height="58"/>
</clipPath>
<g id="surface41" clip-path="url(#clip34)">
<g clip-path="url(#clip35)" clip-rule="nonzero">
<g clip-path="url(#clip36)" clip-rule="nonzero">
<g clip-path="url(#clip37)" clip-rule="nonzero">
<path style=" stroke:none;fill-rule:nonzero;fill:rgb(95.689392%,76.078796%,5.099487%);fill-opacity:1;" d="M 39.9375 2.921875 L 45.238281 6.050781 C 46.316406 6.683594 46.675781 8.074219 46.039062 9.152344 L 35.722656 26.640625 C 35.554688 26.921875 35.648438 27.28125 35.929688 27.445312 L 53.417969 37.761719 C 54.496094 38.398438 54.855469 39.789062 54.21875 40.867188 L 51.09375 46.167969 C 50.457031 47.246094 49.066406 47.605469 47.988281 46.96875 L 30.5 36.652344 C 30.21875 36.488281 29.859375 36.578125 29.695312 36.859375 L 19.378906 54.347656 C 18.742188 55.425781 17.351562 55.785156 16.273438 55.148438 L 10.976562 52.023438 C 9.898438 51.386719 9.539062 49.996094 10.175781 48.917969 L 20.488281 31.429688 C 20.65625 31.148438 20.5625 30.789062 20.28125 30.625 L 2.792969 20.308594 C 1.714844 19.671875 1.355469 18.28125 1.992188 17.203125 L 5.117188 11.90625 C 5.753906 10.828125 7.144531 10.46875 8.222656 11.105469 L 25.710938 21.417969 C 25.992188 21.585938 26.351562 21.492188 26.515625 21.210938 L 36.832031 3.722656 C 37.46875 2.644531 38.859375 2.285156 39.9375 2.921875 "/>
</g>
</g>
</g>
</g>
<mask id="mask13">
  <g filter="url(#alpha)">
<rect x="0" y="0" width="1440" height="675.000002" style="fill:rgb(0%,0%,0%);fill-opacity:0.7765;stroke:none;"/>
  </g>
</mask>
<clipPath id="clip39">
  <path d="M 1 1 L 41 1 L 41 41 L 1 41 Z M 1 1 "/>
</clipPath>
<clipPath id="clip40">
  <path d="M 0.851562 10.304688 L 31.679688 0.996094 L 40.984375 31.824219 L 10.15625 41.132812 Z M 0.851562 10.304688 "/>
</clipPath>
<clipPath id="clip41">
  <path d="M 0.851562 10.304688 L 31.679688 0.996094 L 40.984375 31.824219 L 10.15625 41.132812 Z M 0.851562 10.304688 "/>
</clipPath>
<clipPath id="clip38">
  <rect x="0" y="0" width="42" height="42"/>
</clipPath>
<g id="surface44" clip-path="url(#clip38)">
<g clip-path="url(#clip39)" clip-rule="nonzero">
<g clip-path="url(#clip40)" clip-rule="nonzero">
<g clip-path="url(#clip41)" clip-rule="nonzero">
<path style=" stroke:none;fill-rule:nonzero;fill:rgb(28.239441%,52.159119%,92.939758%);fill-opacity:1;" d="M 30.003906 1.503906 L 2.527344 9.796875 C 1.601562 10.078125 1.078125 11.054688 1.355469 11.980469 L 9.652344 39.457031 C 9.929688 40.382812 10.90625 40.90625 11.832031 40.625 L 39.308594 32.332031 C 40.234375 32.050781 40.757812 31.074219 40.480469 30.152344 L 32.183594 2.671875 C 31.90625 1.746094 30.929688 1.222656 30.003906 1.503906 Z M 36.625 29.488281 L 12.496094 36.773438 L 5.210938 12.640625 L 29.339844 5.359375 Z M 36.625 29.488281 "/>
</g>
</g>
</g>
</g>
<mask id="mask14">
  <g filter="url(#alpha)">
<rect x="0" y="0" width="1440" height="675.000002" style="fill:rgb(0%,0%,0%);fill-opacity:0.7686;stroke:none;"/>
  </g>
</mask>
<clipPath id="clip43">
  <path d="M 2 12 L 30 12 L 30 38 L 2 38 Z M 2 12 "/>
</clipPath>
<clipPath id="clip44">
  <path d="M 20.609375 1.371094 L 37.621094 25.113281 L 18.140625 39.070312 L 1.128906 15.328125 Z M 20.609375 1.371094 "/>
</clipPath>
<clipPath id="clip45">
  <path d="M 20.609375 1.371094 L 37.621094 25.113281 L 18.140625 39.070312 L 1.128906 15.328125 Z M 20.609375 1.371094 "/>
</clipPath>
<clipPath id="clip42">
  <rect x="0" y="0" width="39" height="40"/>
</clipPath>
<g id="surface47" clip-path="url(#clip42)">
<g clip-path="url(#clip43)" clip-rule="nonzero">
<g clip-path="url(#clip44)" clip-rule="nonzero">
<g clip-path="url(#clip45)" clip-rule="nonzero">
<path style=" stroke:none;fill-rule:nonzero;fill:rgb(32.159424%,44.309998%,100%);fill-opacity:1;" d="M 26.300781 15.261719 L 18.164062 34.265625 L 5.6875 16.851562 L 26.300781 15.261719 M 29.113281 13.242188 C 28.714844 12.6875 28.03125 12.328125 27.222656 12.390625 L 4.609375 14.136719 C 2.839844 14.273438 1.804688 16.269531 2.789062 17.648438 L 16.476562 36.753906 C 17.464844 38.132812 19.691406 37.792969 20.386719 36.160156 L 29.3125 15.308594 C 29.632812 14.5625 29.515625 13.800781 29.113281 13.242188 Z M 29.113281 13.242188 "/>
</g>
</g>
</g>
</g>
<mask id="mask15">
  <g filter="url(#alpha)">
<rect x="0" y="0" width="1440" height="675.000002" style="fill:rgb(0%,0%,0%);fill-opacity:0.7176;stroke:none;"/>
  </g>
</mask>
<clipPath id="clip47">
  <path d="M 0.265625 0.578125 L 29.261719 0.578125 L 29.261719 29.8125 L 0.265625 29.8125 Z M 0.265625 0.578125 "/>
</clipPath>
<clipPath id="clip46">
  <rect x="0" y="0" width="30" height="30"/>
</clipPath>
<g id="surface50" clip-path="url(#clip46)">
<g clip-path="url(#clip47)" clip-rule="nonzero">
<path style=" stroke:none;fill-rule:nonzero;fill:rgb(23.529053%,72.938538%,32.939148%);fill-opacity:1;" d="M 29.109375 15.285156 C 29.109375 23.191406 22.65625 29.644531 14.730469 29.644531 C 6.824219 29.644531 0.371094 23.191406 0.371094 15.285156 C 0.371094 7.359375 6.824219 0.925781 14.730469 0.925781 C 22.65625 0.90625 29.109375 7.359375 29.109375 15.285156 Z M 8.277344 15.285156 C 8.277344 18.832031 11.183594 21.738281 14.730469 21.738281 C 18.277344 21.738281 21.183594 18.832031 21.183594 15.285156 C 21.183594 11.738281 18.277344 8.832031 14.730469 8.832031 C 11.183594 8.832031 8.277344 11.71875 8.277344 15.285156 Z M 8.277344 15.285156 "/>
</g>
</g>
<mask id="mask16">
  <g filter="url(#alpha)">
<rect x="0" y="0" width="1440" height="675.000002" style="fill:rgb(0%,0%,0%);fill-opacity:0.7882;stroke:none;"/>
  </g>
</mask>
<clipPath id="clip49">
  <path d="M 3 3 L 43 3 L 43 43 L 3 43 Z M 3 3 "/>
</clipPath>
<clipPath id="clip50">
  <path d="M 23.160156 45.945312 L 0.390625 23.175781 L 23.160156 0.40625 L 45.929688 23.175781 Z M 23.160156 45.945312 "/>
</clipPath>
<clipPath id="clip51">
  <path d="M 23.160156 45.945312 L 0.390625 23.175781 L 23.160156 0.40625 L 45.929688 23.175781 Z M 23.160156 45.945312 "/>
</clipPath>
<clipPath id="clip48">
  <rect x="0" y="0" width="46" height="46"/>
</clipPath>
<g id="surface53" clip-path="url(#clip48)">
<g clip-path="url(#clip49)" clip-rule="nonzero">
<g clip-path="url(#clip50)" clip-rule="nonzero">
<g clip-path="url(#clip51)" clip-rule="nonzero">
<path style=" stroke:none;fill-rule:nonzero;fill:rgb(95.689392%,76.078796%,5.099487%);fill-opacity:1;" d="M 21.027344 3.410156 L 25.292969 3.410156 C 26.164062 3.410156 26.867188 4.113281 26.867188 4.980469 L 26.867188 19.0625 C 26.867188 19.289062 27.046875 19.472656 27.273438 19.472656 L 41.355469 19.472656 C 42.222656 19.472656 42.929688 20.175781 42.929688 21.042969 L 42.929688 25.3125 C 42.929688 26.179688 42.226562 26.882812 41.355469 26.882812 L 27.273438 26.882812 C 27.050781 26.882812 26.867188 27.066406 26.867188 27.292969 L 26.867188 41.375 C 26.867188 42.242188 26.164062 42.945312 25.292969 42.945312 L 21.027344 42.945312 C 20.160156 42.945312 19.453125 42.242188 19.453125 41.375 L 19.453125 27.292969 C 19.453125 27.066406 19.273438 26.882812 19.046875 26.882812 L 4.964844 26.882812 C 4.097656 26.882812 3.390625 26.179688 3.390625 25.3125 L 3.390625 21.042969 C 3.390625 20.175781 4.097656 19.472656 4.964844 19.472656 L 19.046875 19.472656 C 19.273438 19.472656 19.453125 19.289062 19.453125 19.0625 L 19.453125 4.980469 C 19.453125 4.113281 20.160156 3.410156 21.027344 3.410156 "/>
</g>
</g>
</g>
</g>
<mask id="mask17">
  <g filter="url(#alpha)">
<rect x="0" y="0" width="1440" height="675.000002" style="fill:rgb(0%,0%,0%);fill-opacity:0.4784;stroke:none;"/>
  </g>
</mask>
<clipPath id="clip53">
  <path d="M 3 1 L 36 1 L 36 35 L 3 35 Z M 3 1 "/>
</clipPath>
<clipPath id="clip54">
  <path d="M 46.152344 27.5625 L 12.898438 41.21875 L 1.800781 14.203125 L 35.054688 0.546875 Z M 46.152344 27.5625 "/>
</clipPath>
<clipPath id="clip55">
  <path d="M 46.152344 27.5625 L 12.898438 41.21875 L 1.800781 14.203125 L 35.054688 0.546875 Z M 46.152344 27.5625 "/>
</clipPath>
<clipPath id="clip52">
  <rect x="0" y="0" width="47" height="42"/>
</clipPath>
<g id="surface56" clip-path="url(#clip52)">
<g clip-path="url(#clip53)" clip-rule="nonzero">
<g clip-path="url(#clip54)" clip-rule="nonzero">
<g clip-path="url(#clip55)" clip-rule="nonzero">
<path style=" stroke:none;fill-rule:nonzero;fill:rgb(23.529053%,72.938538%,32.939148%);fill-opacity:1;" d="M 27.921875 30.488281 L 7.539062 15.5625 L 31.929688 5.542969 L 27.921875 30.488281 M 29.523438 34.390625 C 30.304688 34.070312 30.929688 33.355469 31.085938 32.375 L 35.484375 5.011719 C 35.828125 2.867188 33.738281 1.085938 31.808594 1.878906 L 5.046875 12.871094 C 3.117188 13.664062 2.882812 16.402344 4.636719 17.683594 L 27 34.054688 C 27.800781 34.640625 28.742188 34.710938 29.523438 34.390625 Z M 29.523438 34.390625 "/>
</g>
</g>
</g>
</g>
<mask id="mask18">
  <g filter="url(#alpha)">
<rect x="0" y="0" width="1440" height="675.000002" style="fill:rgb(0%,0%,0%);fill-opacity:0.7882;stroke:none;"/>
  </g>
</mask>
<clipPath id="clip57">
  <path d="M 2 2 L 56 2 L 56 56 L 2 56 Z M 2 2 "/>
</clipPath>
<clipPath id="clip58">
  <path d="M 12.214844 57.070312 L 0.617188 12.113281 L 45.574219 0.515625 L 57.171875 45.472656 Z M 12.214844 57.070312 "/>
</clipPath>
<clipPath id="clip59">
  <path d="M 12.214844 57.070312 L 0.617188 12.113281 L 45.574219 0.515625 L 57.171875 45.472656 Z M 12.214844 57.070312 "/>
</clipPath>
<clipPath id="clip56">
  <rect x="0" y="0" width="57" height="57"/>
</clipPath>
<g id="surface59" clip-path="url(#clip56)">
<g clip-path="url(#clip57)" clip-rule="nonzero">
<g clip-path="url(#clip58)" clip-rule="nonzero">
<g clip-path="url(#clip59)" clip-rule="nonzero">
<path style=" stroke:none;fill-rule:nonzero;fill:rgb(95.689392%,76.078796%,5.099487%);fill-opacity:1;" d="M 40.726562 2.683594 L 46.023438 5.808594 C 47.101562 6.445312 47.460938 7.835938 46.824219 8.914062 L 36.507812 26.402344 C 36.34375 26.679688 36.4375 27.042969 36.71875 27.207031 L 54.207031 37.523438 C 55.285156 38.160156 55.640625 39.550781 55.007812 40.628906 L 51.878906 45.925781 C 51.242188 47.003906 49.855469 47.363281 48.777344 46.726562 L 31.289062 36.410156 C 31.007812 36.246094 30.648438 36.339844 30.480469 36.621094 L 20.164062 54.109375 C 19.53125 55.1875 18.140625 55.546875 17.0625 54.910156 L 11.761719 51.78125 C 10.683594 51.148438 10.324219 49.757812 10.960938 48.679688 L 21.277344 31.191406 C 21.441406 30.910156 21.347656 30.550781 21.070312 30.382812 L 3.582031 20.070312 C 2.503906 19.433594 2.144531 18.042969 2.78125 16.964844 L 5.90625 11.664062 C 6.542969 10.585938 7.933594 10.226562 9.011719 10.863281 L 26.5 21.179688 C 26.777344 21.34375 27.140625 21.253906 27.304688 20.972656 L 37.621094 3.484375 C 38.257812 2.40625 39.644531 2.046875 40.726562 2.683594 "/>
</g>
</g>
</g>
</g>
<mask id="mask19">
  <g filter="url(#alpha)">
<rect x="0" y="0" width="1440" height="675.000002" style="fill:rgb(0%,0%,0%);fill-opacity:0.7765;stroke:none;"/>
  </g>
</mask>
<clipPath id="clip61">
  <path d="M 1 1 L 40.824219 1 L 40.824219 40.96875 L 1 40.96875 Z M 1 1 "/>
</clipPath>
<clipPath id="clip62">
  <path d="M 0.570312 9.980469 L 31.398438 0.675781 L 40.703125 31.503906 L 9.875 40.808594 Z M 0.570312 9.980469 "/>
</clipPath>
<clipPath id="clip63">
  <path d="M 0.570312 9.980469 L 31.398438 0.675781 L 40.703125 31.503906 L 9.875 40.808594 Z M 0.570312 9.980469 "/>
</clipPath>
<clipPath id="clip60">
  <rect x="0" y="0" width="41" height="41"/>
</clipPath>
<g id="surface62" clip-path="url(#clip60)">
<g clip-path="url(#clip61)" clip-rule="nonzero">
<g clip-path="url(#clip62)" clip-rule="nonzero">
<g clip-path="url(#clip63)" clip-rule="nonzero">
<path style=" stroke:none;fill-rule:nonzero;fill:rgb(28.239441%,52.159119%,92.939758%);fill-opacity:1;" d="M 29.722656 1.179688 L 2.246094 9.476562 C 1.320312 9.757812 0.796875 10.730469 1.074219 11.65625 L 9.371094 39.136719 C 9.648438 40.0625 10.625 40.585938 11.550781 40.304688 L 39.027344 32.011719 C 39.953125 31.730469 40.476562 30.753906 40.199219 29.828125 L 31.902344 2.351562 C 31.625 1.425781 30.648438 0.902344 29.722656 1.179688 Z M 36.34375 29.167969 L 12.214844 36.449219 L 4.929688 12.320312 L 29.058594 5.035156 Z M 36.34375 29.167969 "/>
</g>
</g>
</g>
</g>
<mask id="mask20">
  <g filter="url(#alpha)">
<rect x="0" y="0" width="1440" height="675.000002" style="fill:rgb(0%,0%,0%);fill-opacity:0.7686;stroke:none;"/>
  </g>
</mask>
<clipPath id="clip65">
  <path d="M 2 12 L 30 12 L 30 38 L 2 38 Z M 2 12 "/>
</clipPath>
<clipPath id="clip66">
  <path d="M 20.441406 1.535156 L 37.449219 25.277344 L 17.96875 39.234375 L 0.960938 15.492188 Z M 20.441406 1.535156 "/>
</clipPath>
<clipPath id="clip67">
  <path d="M 20.441406 1.535156 L 37.449219 25.277344 L 17.96875 39.234375 L 0.960938 15.492188 Z M 20.441406 1.535156 "/>
</clipPath>
<clipPath id="clip64">
  <rect x="0" y="0" width="38" height="40"/>
</clipPath>
<g id="surface65" clip-path="url(#clip64)">
<g clip-path="url(#clip65)" clip-rule="nonzero">
<g clip-path="url(#clip66)" clip-rule="nonzero">
<g clip-path="url(#clip67)" clip-rule="nonzero">
<path style=" stroke:none;fill-rule:nonzero;fill:rgb(32.159424%,44.309998%,100%);fill-opacity:1;" d="M 26.128906 15.425781 L 17.996094 34.429688 L 5.519531 17.015625 L 26.128906 15.425781 M 28.945312 13.40625 C 28.546875 12.847656 27.863281 12.492188 27.050781 12.554688 L 4.441406 14.300781 C 2.667969 14.4375 1.632812 16.433594 2.621094 17.8125 L 16.308594 36.917969 C 17.296875 38.292969 19.519531 37.957031 20.21875 36.324219 L 29.144531 15.472656 C 29.464844 14.726562 29.34375 13.964844 28.945312 13.40625 Z M 28.945312 13.40625 "/>
</g>
</g>
</g>
</g>
<mask id="mask21">
  <g filter="url(#alpha)">
<rect x="0" y="0" width="1440" height="675.000002" style="fill:rgb(0%,0%,0%);fill-opacity:0.7686;stroke:none;"/>
  </g>
</mask>
<clipPath id="clip69">
  <path d="M 13 8 L 54 8 L 54 49 L 13 49 Z M 13 8 "/>
</clipPath>
<clipPath id="clip70">
  <path d="M 1.160156 16.492188 L 43.28125 0.839844 L 55.800781 34.535156 L 13.683594 50.1875 Z M 1.160156 16.492188 "/>
</clipPath>
<clipPath id="clip71">
  <path d="M 1.160156 16.492188 L 43.28125 0.839844 L 55.800781 34.535156 L 13.683594 50.1875 Z M 1.160156 16.492188 "/>
</clipPath>
<clipPath id="clip68">
  <rect x="0" y="0" width="57" height="51"/>
</clipPath>
<g id="surface68" clip-path="url(#clip68)">
<g clip-path="url(#clip69)" clip-rule="nonzero">
<g clip-path="url(#clip70)" clip-rule="nonzero">
<g clip-path="url(#clip71)" clip-rule="nonzero">
<path style=" stroke:none;fill-rule:nonzero;fill:rgb(23.529053%,72.938538%,32.939148%);fill-opacity:1;" d="M 24.03125 13.535156 L 48.714844 32.65625 L 17.820312 44.136719 L 24.03125 13.535156 M 22.222656 8.664062 C 21.230469 9.035156 20.421875 9.890625 20.175781 11.09375 L 13.363281 44.664062 C 12.832031 47.296875 15.351562 49.566406 17.796875 48.660156 L 51.691406 36.0625 C 54.136719 35.15625 54.558594 31.789062 52.4375 30.144531 L 25.355469 9.171875 C 24.382812 8.417969 23.210938 8.296875 22.222656 8.664062 Z M 22.222656 8.664062 "/>
</g>
</g>
</g>
</g>
<mask id="mask22">
  <g filter="url(#alpha)">
<rect x="0" y="0" width="1440" height="675.000002" style="fill:rgb(0%,0%,0%);fill-opacity:0.7882;stroke:none;"/>
  </g>
</mask>
<clipPath id="clip73">
  <path d="M 1 2 L 40 2 L 40 40 L 1 40 Z M 1 2 "/>
</clipPath>
<clipPath id="clip74">
  <path d="M 30.722656 41.390625 L 0.195312 31.140625 L 10.441406 0.613281 L 40.972656 10.863281 Z M 30.722656 41.390625 "/>
</clipPath>
<clipPath id="clip75">
  <path d="M 30.722656 41.390625 L 0.195312 31.140625 L 10.441406 0.613281 L 40.972656 10.863281 Z M 30.722656 41.390625 "/>
</clipPath>
<clipPath id="clip72">
  <rect x="0" y="0" width="42" height="42"/>
</clipPath>
<g id="surface71" clip-path="url(#clip72)">
<g clip-path="url(#clip73)" clip-rule="nonzero">
<g clip-path="url(#clip74)" clip-rule="nonzero">
<g clip-path="url(#clip75)" clip-rule="nonzero">
<path style=" stroke:none;fill-rule:nonzero;fill:rgb(23.529053%,72.938538%,32.939148%);fill-opacity:1;" d="M 9.871094 4.253906 L 13.691406 2.355469 C 14.46875 1.96875 15.414062 2.285156 15.800781 3.0625 L 22.070312 15.671875 C 22.171875 15.875 22.414062 15.957031 22.617188 15.855469 L 35.226562 9.585938 C 36.003906 9.199219 36.945312 9.515625 37.332031 10.292969 L 39.234375 14.113281 C 39.621094 14.890625 39.304688 15.832031 38.527344 16.21875 L 25.917969 22.492188 C 25.714844 22.589844 25.632812 22.835938 25.734375 23.039062 L 32.003906 35.648438 C 32.390625 36.425781 32.074219 37.367188 31.296875 37.753906 L 27.476562 39.65625 C 26.699219 40.042969 25.753906 39.726562 25.367188 38.949219 L 19.097656 26.339844 C 18.996094 26.136719 18.75 26.054688 18.550781 26.15625 L 5.941406 32.425781 C 5.164062 32.8125 4.21875 32.496094 3.832031 31.71875 L 1.933594 27.898438 C 1.546875 27.121094 1.863281 26.175781 2.640625 25.789062 L 15.25 19.519531 C 15.453125 19.417969 15.535156 19.171875 15.433594 18.972656 L 9.164062 6.363281 C 8.777344 5.585938 9.09375 4.640625 9.871094 4.253906 "/>
</g>
</g>
</g>
</g>
</defs>
<g id="surface1">
<g clip-path="url(#clip1)" clip-rule="nonzero">
<path style=" stroke:none;fill-rule:nonzero;fill:rgb(100%,100%,100%);fill-opacity:1;" d="M 1.066406 0 L 1438.933594 0 L 1438.933594 681.492188 L 1.066406 681.492188 Z M 1.066406 0 "/>
<path style=" stroke:none;fill-rule:nonzero;fill:rgb(100%,100%,100%);fill-opacity:1;" d="M 1.066406 0 L 1438.933594 0 L 1438.933594 674 L 1.066406 674 Z M 1.066406 0 "/>
<path style=" stroke:none;fill-rule:nonzero;fill:rgb(100%,100%,100%);fill-opacity:1;" d="M 1.066406 0 L 1438.933594 0 L 1438.933594 674 L 1.066406 674 Z M 1.066406 0 "/>
</g>
<use xlink:href="#surface5" transform="matrix(1,0,0,1,883,47)" mask="url(#mask0)"/>
<use xlink:href="#surface8" transform="matrix(1,0,0,1,612,163)" mask="url(#mask1)"/>
<use xlink:href="#surface11" transform="matrix(1,0,0,1,963,533)" mask="url(#mask2)"/>
<use xlink:href="#surface14" transform="matrix(1,0,0,1,347,543)" mask="url(#mask3)"/>
<use xlink:href="#surface17" transform="matrix(1,0,0,1,762,268)" mask="url(#mask4)"/>
<use xlink:href="#surface20" transform="matrix(1,0,0,1,153,19)" mask="url(#mask5)"/>
<use xlink:href="#surface23" transform="matrix(1,0,0,1,936,366)" mask="url(#mask6)"/>
<use xlink:href="#surface26" transform="matrix(1,0,0,1,48,376)" mask="url(#mask7)"/>
<use xlink:href="#surface29" transform="matrix(1,0,0,1,314,15)" mask="url(#mask8)"/>
<use xlink:href="#surface32" transform="matrix(1,0,0,1,57,152)" mask="url(#mask9)"/>
<use xlink:href="#surface35" transform="matrix(1,0,0,1,617,476)" mask="url(#mask10)"/>
<use xlink:href="#surface38" transform="matrix(1,0,0,1,456,20)" mask="url(#mask11)"/>
<use xlink:href="#surface41" transform="matrix(1,0,0,1,123,585)" mask="url(#mask12)"/>
<path style=" stroke:none;fill-rule:nonzero;fill:rgb(23.529053%,72.938538%,32.939148%);fill-opacity:1;" d="M 1003.511719 189.578125 C 999.464844 189.578125 995.652344 188 992.792969 185.136719 C 989.925781 182.273438 988.351562 178.464844 988.351562 174.417969 C 988.351562 170.367188 989.925781 166.558594 992.792969 163.695312 C 995.652344 160.832031 999.464844 159.253906 1003.511719 159.253906 C 1007.558594 159.253906 1011.371094 160.832031 1014.230469 163.695312 C 1017.097656 166.5625 1018.671875 170.367188 1018.671875 174.417969 C 1018.671875 178.464844 1017.097656 182.273438 1014.230469 185.136719 C 1011.371094 188 1007.558594 189.578125 1003.511719 189.578125 Z M 1003.511719 160.164062 C 999.707031 160.164062 996.125 161.648438 993.4375 164.339844 C 990.746094 167.03125 989.261719 170.609375 989.261719 174.417969 C 989.261719 178.222656 990.746094 181.800781 993.4375 184.492188 C 996.125 187.183594 999.707031 188.667969 1003.511719 188.667969 C 1007.316406 188.667969 1010.898438 187.183594 1013.589844 184.492188 C 1016.28125 181.800781 1017.765625 178.222656 1017.765625 174.417969 C 1017.765625 170.609375 1016.28125 167.03125 1013.589844 164.339844 C 1010.898438 161.648438 1007.316406 160.164062 1003.511719 160.164062 Z M 1003.511719 160.164062 "/>
<path style=" stroke:none;fill-rule:nonzero;fill:rgb(23.529053%,72.938538%,32.939148%);fill-opacity:1;" d="M 538.890625 649.589844 C 534.84375 649.589844 531.03125 648.011719 528.171875 645.148438 C 525.304688 642.285156 523.730469 638.476562 523.730469 634.425781 C 523.730469 630.378906 525.304688 626.570312 528.171875 623.707031 C 531.03125 620.84375 534.84375 619.265625 538.890625 619.265625 C 542.9375 619.265625 546.75 620.84375 549.609375 623.707031 C 552.476562 626.574219 554.050781 630.378906 554.050781 634.425781 C 554.050781 638.476562 552.476562 642.285156 549.609375 645.148438 C 546.75 648.011719 542.9375 649.589844 538.890625 649.589844 Z M 538.890625 620.175781 C 535.085938 620.175781 531.503906 621.660156 528.816406 624.351562 C 526.125 627.042969 524.640625 630.621094 524.640625 634.425781 C 524.640625 638.234375 526.125 641.8125 528.816406 644.503906 C 531.503906 647.195312 535.085938 648.679688 538.890625 648.679688 C 542.695312 648.679688 546.277344 647.195312 548.96875 644.503906 C 551.660156 641.8125 553.144531 638.234375 553.144531 634.425781 C 553.144531 630.621094 551.660156 627.042969 548.96875 624.351562 C 546.277344 621.660156 542.695312 620.175781 538.890625 620.175781 Z M 538.890625 620.175781 "/>
<path style=" stroke:none;fill-rule:nonzero;fill:rgb(23.529053%,72.938538%,32.939148%);fill-opacity:1;" d="M 75.070312 71.640625 C 71.019531 71.640625 67.210938 70.066406 64.351562 67.199219 C 61.484375 64.339844 59.910156 60.527344 59.910156 56.480469 C 59.910156 52.433594 61.484375 48.621094 64.351562 45.761719 C 67.210938 42.894531 71.019531 41.320312 75.070312 41.320312 C 79.117188 41.320312 82.929688 42.894531 85.789062 45.761719 C 88.652344 48.628906 90.230469 52.433594 90.230469 56.480469 C 90.230469 60.527344 88.652344 64.339844 85.789062 67.199219 C 82.929688 70.066406 79.117188 71.640625 75.070312 71.640625 Z M 75.070312 42.230469 C 71.265625 42.230469 67.683594 43.714844 64.992188 46.402344 C 62.300781 49.09375 60.816406 52.675781 60.816406 56.480469 C 60.816406 60.285156 62.300781 63.867188 64.992188 66.558594 C 67.683594 69.246094 71.265625 70.730469 75.070312 70.730469 C 78.875 70.730469 82.457031 69.246094 85.144531 66.558594 C 87.835938 63.867188 89.320312 60.285156 89.320312 56.480469 C 89.320312 52.675781 87.835938 49.09375 85.144531 46.402344 C 82.457031 43.714844 78.875 42.230469 75.070312 42.230469 Z M 75.070312 42.230469 "/>
<use xlink:href="#surface44" transform="matrix(1,0,0,1,588,316)" mask="url(#mask13)"/>
<use xlink:href="#surface47" transform="matrix(1,0,0,1,30,524)" mask="url(#mask14)"/>
<use xlink:href="#surface50" transform="matrix(1,0,0,1,783,582)" mask="url(#mask15)"/>
<use xlink:href="#surface53" transform="matrix(1,0,0,1,1230,523)" mask="url(#mask16)"/>
<path style=" stroke:none;fill-rule:nonzero;fill:rgb(23.529053%,72.938538%,32.939148%);fill-opacity:1;" d="M 1401.675781 652.09375 C 1397.628906 652.09375 1393.816406 650.519531 1390.957031 647.652344 C 1388.089844 644.792969 1386.515625 640.980469 1386.515625 636.933594 C 1386.515625 632.886719 1388.089844 629.074219 1390.957031 626.214844 C 1393.816406 623.347656 1397.628906 621.773438 1401.675781 621.773438 C 1405.722656 621.773438 1409.535156 623.347656 1412.394531 626.214844 C 1415.261719 629.082031 1416.835938 632.886719 1416.835938 636.933594 C 1416.835938 640.980469 1415.261719 644.792969 1412.394531 647.652344 C 1409.535156 650.519531 1405.722656 652.09375 1401.675781 652.09375 Z M 1401.675781 622.683594 C 1397.871094 622.683594 1394.289062 624.167969 1391.597656 626.859375 C 1388.910156 629.546875 1387.421875 633.128906 1387.421875 636.933594 C 1387.421875 640.738281 1388.910156 644.320312 1391.597656 647.011719 C 1394.289062 649.703125 1397.871094 651.1875 1401.675781 651.1875 C 1405.480469 651.1875 1409.0625 649.703125 1411.75 647.011719 C 1414.441406 644.320312 1415.925781 640.738281 1415.925781 636.933594 C 1415.925781 633.128906 1414.441406 629.546875 1411.75 626.859375 C 1409.0625 624.167969 1405.480469 622.683594 1401.675781 622.683594 Z M 1401.675781 622.683594 "/>
<use xlink:href="#surface56" transform="matrix(1,0,0,1,1154,383)" mask="url(#mask17)"/>
<path style=" stroke:none;fill-rule:nonzero;fill:rgb(85.879517%,19.60907%,21.179199%);fill-opacity:1;" d="M 1083.84375 608.722656 C 1079.796875 608.722656 1075.984375 607.144531 1073.125 604.277344 C 1070.257812 601.417969 1068.683594 597.609375 1068.683594 593.558594 C 1068.683594 589.511719 1070.257812 585.703125 1073.125 582.839844 C 1075.984375 579.976562 1079.796875 578.398438 1083.84375 578.398438 C 1087.890625 578.398438 1091.703125 579.976562 1094.5625 582.839844 C 1097.429688 585.707031 1099.003906 589.511719 1099.003906 593.558594 C 1099.003906 597.609375 1097.429688 601.417969 1094.5625 604.277344 C 1091.703125 607.144531 1087.890625 608.722656 1083.84375 608.722656 Z M 1083.84375 579.308594 C 1080.039062 579.308594 1076.457031 580.792969 1073.765625 583.484375 C 1071.078125 586.175781 1069.59375 589.753906 1069.59375 593.558594 C 1069.59375 597.367188 1071.078125 600.945312 1073.765625 603.636719 C 1076.457031 606.328125 1080.039062 607.8125 1083.84375 607.8125 C 1087.648438 607.8125 1091.230469 606.328125 1093.921875 603.636719 C 1096.609375 600.945312 1098.09375 597.367188 1098.09375 593.558594 C 1098.09375 589.753906 1096.609375 586.175781 1093.921875 583.484375 C 1091.230469 580.792969 1087.648438 579.308594 1083.84375 579.308594 Z M 1083.84375 579.308594 "/>
<use xlink:href="#surface59" transform="matrix(1,0,0,1,1068,10)" mask="url(#mask18)"/>
<path style=" stroke:none;fill-rule:nonzero;fill:rgb(23.529053%,72.938538%,32.939148%);fill-opacity:1;" d="M 1215.320312 133.847656 C 1211.269531 133.847656 1207.460938 132.273438 1204.601562 129.40625 C 1201.734375 126.546875 1200.160156 122.738281 1200.160156 118.6875 C 1200.160156 114.640625 1201.734375 110.832031 1204.601562 107.96875 C 1207.460938 105.105469 1211.269531 103.527344 1215.320312 103.527344 C 1219.367188 103.527344 1223.175781 105.105469 1226.039062 107.96875 C 1228.902344 110.835938 1230.480469 114.640625 1230.480469 118.6875 C 1230.480469 122.738281 1228.902344 126.546875 1226.039062 129.40625 C 1223.175781 132.273438 1219.367188 133.847656 1215.320312 133.847656 Z M 1215.320312 104.4375 C 1211.511719 104.4375 1207.933594 105.921875 1205.242188 108.613281 C 1202.550781 111.304688 1201.066406 114.882812 1201.066406 118.6875 C 1201.066406 122.496094 1202.550781 126.074219 1205.242188 128.765625 C 1207.933594 131.457031 1211.511719 132.941406 1215.320312 132.941406 C 1219.125 132.941406 1222.703125 131.457031 1225.394531 128.765625 C 1228.085938 126.074219 1229.570312 122.496094 1229.570312 118.6875 C 1229.570312 114.882812 1228.085938 111.304688 1225.394531 108.613281 C 1222.703125 105.921875 1219.125 104.4375 1215.320312 104.4375 Z M 1215.320312 104.4375 "/>
<use xlink:href="#surface62" transform="matrix(1,0,0,1,1366,35)" mask="url(#mask19)"/>
<path style=" stroke:none;fill-rule:nonzero;fill:rgb(23.529053%,72.938538%,32.939148%);fill-opacity:1;" d="M 1366.570312 159.253906 C 1365.871094 159.253906 1365.179688 159.324219 1364.492188 159.460938 C 1363.808594 159.597656 1363.144531 159.796875 1362.5 160.066406 C 1361.851562 160.332031 1361.238281 160.660156 1360.660156 161.046875 C 1360.078125 161.4375 1359.542969 161.878906 1359.046875 162.371094 C 1358.554688 162.863281 1358.113281 163.402344 1357.722656 163.984375 C 1357.335938 164.5625 1357.007812 165.175781 1356.742188 165.820312 C 1356.472656 166.46875 1356.273438 167.132812 1356.136719 167.816406 C 1356 168.503906 1355.929688 169.195312 1355.929688 169.894531 C 1355.929688 170.589844 1356 171.28125 1356.136719 171.96875 C 1356.273438 172.652344 1356.472656 173.316406 1356.742188 173.964844 C 1357.007812 174.609375 1357.335938 175.222656 1357.722656 175.800781 C 1358.113281 176.382812 1358.554688 176.921875 1359.046875 177.414062 C 1359.542969 177.910156 1360.078125 178.347656 1360.660156 178.738281 C 1361.238281 179.125 1361.851562 179.453125 1362.5 179.71875 C 1363.144531 179.988281 1363.808594 180.191406 1364.492188 180.324219 C 1365.179688 180.460938 1365.871094 180.53125 1366.570312 180.53125 C 1367.265625 180.53125 1367.960938 180.460938 1368.644531 180.324219 C 1369.328125 180.191406 1369.996094 179.988281 1370.640625 179.71875 C 1371.285156 179.453125 1371.898438 179.125 1372.480469 178.738281 C 1373.058594 178.347656 1373.597656 177.910156 1374.089844 177.414062 C 1374.585938 176.921875 1375.027344 176.382812 1375.414062 175.800781 C 1375.800781 175.222656 1376.128906 174.609375 1376.394531 173.964844 C 1376.664062 173.316406 1376.867188 172.652344 1377 171.96875 C 1377.136719 171.28125 1377.207031 170.589844 1377.207031 169.894531 C 1377.207031 169.195312 1377.136719 168.503906 1377 167.816406 C 1376.867188 167.132812 1376.664062 166.46875 1376.394531 165.820312 C 1376.128906 165.175781 1375.800781 164.5625 1375.414062 163.984375 C 1375.027344 163.402344 1374.585938 162.863281 1374.089844 162.371094 C 1373.597656 161.878906 1373.058594 161.4375 1372.480469 161.046875 C 1371.898438 160.660156 1371.285156 160.332031 1370.640625 160.066406 C 1369.996094 159.796875 1369.328125 159.597656 1368.644531 159.460938 C 1367.960938 159.324219 1367.265625 159.253906 1366.570312 159.253906 Z M 1366.570312 159.253906 "/>
<use xlink:href="#surface65" transform="matrix(1,0,0,1,1296,268)" mask="url(#mask20)"/>
<path style=" stroke:none;fill-rule:nonzero;fill:rgb(85.879517%,19.60907%,21.179199%);fill-opacity:1;" d="M 1114.277344 285.875 C 1113.578125 285.875 1112.886719 285.941406 1112.203125 286.078125 C 1111.515625 286.214844 1110.851562 286.417969 1110.207031 286.683594 C 1109.558594 286.953125 1108.949219 287.28125 1108.367188 287.667969 C 1107.785156 288.054688 1107.25 288.496094 1106.753906 288.992188 C 1106.261719 289.484375 1105.820312 290.023438 1105.433594 290.601562 C 1105.042969 291.183594 1104.714844 291.796875 1104.449219 292.441406 C 1104.179688 293.085938 1103.980469 293.753906 1103.84375 294.4375 C 1103.707031 295.121094 1103.640625 295.8125 1103.640625 296.511719 C 1103.640625 297.210938 1103.707031 297.902344 1103.84375 298.585938 C 1103.980469 299.273438 1104.179688 299.9375 1104.449219 300.582031 C 1104.714844 301.226562 1105.042969 301.839844 1105.433594 302.421875 C 1105.820312 303.003906 1106.261719 303.539062 1106.753906 304.035156 C 1107.25 304.527344 1107.785156 304.96875 1108.367188 305.355469 C 1108.949219 305.746094 1109.558594 306.074219 1110.207031 306.339844 C 1110.851562 306.605469 1111.515625 306.808594 1112.203125 306.945312 C 1112.886719 307.082031 1113.578125 307.148438 1114.277344 307.148438 C 1114.976562 307.148438 1115.667969 307.082031 1116.351562 306.945312 C 1117.035156 306.808594 1117.703125 306.605469 1118.347656 306.339844 C 1118.992188 306.074219 1119.605469 305.746094 1120.1875 305.355469 C 1120.765625 304.96875 1121.304688 304.527344 1121.796875 304.035156 C 1122.292969 303.539062 1122.734375 303.003906 1123.121094 302.421875 C 1123.507812 301.839844 1123.835938 301.226562 1124.105469 300.582031 C 1124.371094 299.9375 1124.574219 299.273438 1124.710938 298.585938 C 1124.84375 297.902344 1124.914062 297.210938 1124.914062 296.511719 C 1124.914062 295.8125 1124.84375 295.121094 1124.710938 294.4375 C 1124.574219 293.753906 1124.371094 293.085938 1124.105469 292.441406 C 1123.835938 291.796875 1123.507812 291.183594 1123.121094 290.601562 C 1122.734375 290.023438 1122.292969 289.484375 1121.796875 288.992188 C 1121.304688 288.496094 1120.765625 288.054688 1120.1875 287.667969 C 1119.605469 287.28125 1118.992188 286.953125 1118.347656 286.683594 C 1117.703125 286.417969 1117.035156 286.214844 1116.351562 286.078125 C 1115.667969 285.941406 1114.976562 285.875 1114.277344 285.875 Z M 1114.277344 285.875 "/>
<use xlink:href="#surface68" transform="matrix(1,0,0,1,707,30)" mask="url(#mask21)"/>
<use xlink:href="#surface71" transform="matrix(1,0,0,1,1315,398)" mask="url(#mask22)"/>
</g>
</svg>
